%TF.GenerationSoftware,KiCad,Pcbnew,7.0.9*%
%TF.CreationDate,2023-12-29T11:45:24+09:00*%
%TF.ProjectId,CAT4238_Unit,43415434-3233-4385-9f55-6e69742e6b69,rev?*%
%TF.SameCoordinates,Original*%
%TF.FileFunction,Legend,Top*%
%TF.FilePolarity,Positive*%
%FSLAX46Y46*%
G04 Gerber Fmt 4.6, Leading zero omitted, Abs format (unit mm)*
G04 Created by KiCad (PCBNEW 7.0.9) date 2023-12-29 11:45:24*
%MOMM*%
%LPD*%
G01*
G04 APERTURE LIST*
G04 Aperture macros list*
%AMRoundRect*
0 Rectangle with rounded corners*
0 $1 Rounding radius*
0 $2 $3 $4 $5 $6 $7 $8 $9 X,Y pos of 4 corners*
0 Add a 4 corners polygon primitive as box body*
4,1,4,$2,$3,$4,$5,$6,$7,$8,$9,$2,$3,0*
0 Add four circle primitives for the rounded corners*
1,1,$1+$1,$2,$3*
1,1,$1+$1,$4,$5*
1,1,$1+$1,$6,$7*
1,1,$1+$1,$8,$9*
0 Add four rect primitives between the rounded corners*
20,1,$1+$1,$2,$3,$4,$5,0*
20,1,$1+$1,$4,$5,$6,$7,0*
20,1,$1+$1,$6,$7,$8,$9,0*
20,1,$1+$1,$8,$9,$2,$3,0*%
G04 Aperture macros list end*
%ADD10C,0.150000*%
%ADD11C,0.120000*%
%ADD12C,0.100000*%
%ADD13C,0.200000*%
%ADD14R,1.700000X1.700000*%
%ADD15O,1.700000X1.700000*%
%ADD16C,0.800000*%
%ADD17C,6.400000*%
%ADD18C,2.200000*%
%ADD19O,2.200000X2.200000*%
%ADD20C,1.200000*%
%ADD21C,1.300000*%
%ADD22RoundRect,0.237500X0.237500X-0.300000X0.237500X0.300000X-0.237500X0.300000X-0.237500X-0.300000X0*%
%ADD23R,1.050000X0.550000*%
%ADD24RoundRect,0.237500X0.287500X0.237500X-0.287500X0.237500X-0.287500X-0.237500X0.287500X-0.237500X0*%
%ADD25R,1.450000X2.200000*%
%ADD26RoundRect,0.237500X0.250000X0.237500X-0.250000X0.237500X-0.250000X-0.237500X0.250000X-0.237500X0*%
%ADD27RoundRect,0.237500X0.300000X0.237500X-0.300000X0.237500X-0.300000X-0.237500X0.300000X-0.237500X0*%
%ADD28RoundRect,0.237500X-0.237500X0.250000X-0.237500X-0.250000X0.237500X-0.250000X0.237500X0.250000X0*%
G04 APERTURE END LIST*
D10*
G36*
X150072676Y-81624925D02*
G01*
X148636962Y-81624925D01*
X148636962Y-81014231D01*
X149019053Y-81014231D01*
X149027962Y-81064755D01*
X149067262Y-81097732D01*
X149092914Y-81102255D01*
X149398866Y-81102255D01*
X149398866Y-81408207D01*
X149416413Y-81456416D01*
X149460842Y-81482068D01*
X149511366Y-81473159D01*
X149544343Y-81433859D01*
X149548866Y-81408207D01*
X149548866Y-81102255D01*
X149854819Y-81102255D01*
X149903028Y-81084708D01*
X149928680Y-81040279D01*
X149919771Y-80989755D01*
X149880471Y-80956778D01*
X149854819Y-80952255D01*
X149548866Y-80952255D01*
X149548866Y-80646303D01*
X149531319Y-80598094D01*
X149486890Y-80572442D01*
X149436366Y-80581351D01*
X149403389Y-80620651D01*
X149398866Y-80646303D01*
X149398866Y-80952255D01*
X149092914Y-80952255D01*
X149044705Y-80969802D01*
X149019053Y-81014231D01*
X148636962Y-81014231D01*
X148636962Y-80170112D01*
X148779819Y-80170112D01*
X148785266Y-80185078D01*
X148786458Y-80200963D01*
X148793780Y-80208469D01*
X148797366Y-80218321D01*
X148811159Y-80226284D01*
X148822282Y-80237687D01*
X148839102Y-80242418D01*
X148841795Y-80243973D01*
X148843537Y-80243665D01*
X148847356Y-80244740D01*
X149323546Y-80292359D01*
X149324025Y-80292236D01*
X149324472Y-80292445D01*
X149348822Y-80285920D01*
X149373262Y-80279696D01*
X149373549Y-80279295D01*
X149374027Y-80279168D01*
X149388475Y-80258532D01*
X149403207Y-80238040D01*
X149403169Y-80237546D01*
X149403453Y-80237142D01*
X149401257Y-80212040D01*
X149399370Y-80186880D01*
X149399024Y-80186526D01*
X149398982Y-80186035D01*
X149384042Y-80164698D01*
X149345029Y-80125685D01*
X149310771Y-80057169D01*
X149310771Y-79854484D01*
X149345029Y-79785968D01*
X149375436Y-79755561D01*
X149443952Y-79721303D01*
X149646637Y-79721303D01*
X149715153Y-79755561D01*
X149745561Y-79785968D01*
X149779819Y-79854484D01*
X149779819Y-80057169D01*
X149745561Y-80125684D01*
X149706548Y-80164697D01*
X149684866Y-80211194D01*
X149698143Y-80260749D01*
X149740168Y-80290175D01*
X149791275Y-80285705D01*
X149812612Y-80270765D01*
X149860232Y-80223146D01*
X149860922Y-80221664D01*
X149874282Y-80203653D01*
X149921901Y-80108415D01*
X149922413Y-80103961D01*
X149925296Y-80100526D01*
X149929819Y-80074874D01*
X149929819Y-79836779D01*
X149928285Y-79832565D01*
X149929327Y-79828204D01*
X149921901Y-79803238D01*
X149874282Y-79708000D01*
X149873094Y-79706875D01*
X149860232Y-79688507D01*
X149812612Y-79640888D01*
X149811129Y-79640196D01*
X149793121Y-79626840D01*
X149697883Y-79579221D01*
X149693429Y-79578708D01*
X149689994Y-79575826D01*
X149664342Y-79571303D01*
X149426247Y-79571303D01*
X149422033Y-79572836D01*
X149417672Y-79571795D01*
X149392706Y-79579221D01*
X149297468Y-79626840D01*
X149296342Y-79628029D01*
X149277976Y-79640889D01*
X149230357Y-79688508D01*
X149229666Y-79689989D01*
X149216308Y-79708000D01*
X149168689Y-79803238D01*
X149168176Y-79807691D01*
X149165294Y-79811127D01*
X149160771Y-79836779D01*
X149160771Y-80074874D01*
X149162304Y-80079087D01*
X149161263Y-80083448D01*
X149168689Y-80108415D01*
X149178009Y-80127056D01*
X148929819Y-80102237D01*
X148929819Y-79693922D01*
X148912272Y-79645713D01*
X148867843Y-79620061D01*
X148817319Y-79628970D01*
X148784342Y-79668270D01*
X148779819Y-79693922D01*
X148779819Y-80170112D01*
X148636962Y-80170112D01*
X148636962Y-79371589D01*
X148780630Y-79371589D01*
X148805059Y-79416703D01*
X148852770Y-79435560D01*
X148878536Y-79431739D01*
X149878536Y-79098406D01*
X149880227Y-79097063D01*
X149882385Y-79097005D01*
X149900137Y-79081263D01*
X149918722Y-79066515D01*
X149919154Y-79064400D01*
X149920771Y-79062967D01*
X149924250Y-79039498D01*
X149929008Y-79016254D01*
X149927979Y-79014354D01*
X149928296Y-79012219D01*
X149915875Y-78992001D01*
X149904579Y-78971140D01*
X149902571Y-78970346D01*
X149901441Y-78968506D01*
X149878536Y-78956104D01*
X148878536Y-78622771D01*
X148827252Y-78624172D01*
X148788867Y-78658209D01*
X148781342Y-78708958D01*
X148808197Y-78752670D01*
X148831102Y-78765073D01*
X149617648Y-79027255D01*
X148831102Y-79289437D01*
X148790916Y-79321328D01*
X148780630Y-79371589D01*
X148636962Y-79371589D01*
X148636962Y-78479914D01*
X150072676Y-78479914D01*
X150072676Y-81624925D01*
G37*
G36*
X162890547Y-80145638D02*
G01*
X162967534Y-80184132D01*
X163041648Y-80258245D01*
X163079819Y-80372758D01*
X163079819Y-80523683D01*
X162229819Y-80523683D01*
X162229819Y-80372758D01*
X162267990Y-80258244D01*
X162342103Y-80184132D01*
X162419090Y-80145638D01*
X162592624Y-80102255D01*
X162717013Y-80102255D01*
X162890547Y-80145638D01*
G37*
G36*
X163372676Y-82530826D02*
G01*
X161936962Y-82530826D01*
X161936962Y-82299945D01*
X162080958Y-82299945D01*
X162089867Y-82350469D01*
X162129167Y-82383446D01*
X162154819Y-82387969D01*
X163154819Y-82387969D01*
X163173127Y-82381305D01*
X163192319Y-82377921D01*
X163196669Y-82372736D01*
X163203028Y-82370422D01*
X163212770Y-82353548D01*
X163225296Y-82338621D01*
X163227013Y-82328878D01*
X163228680Y-82325993D01*
X163228101Y-82322710D01*
X163229819Y-82312969D01*
X163229819Y-81836779D01*
X163212272Y-81788570D01*
X163167843Y-81762918D01*
X163117319Y-81771827D01*
X163084342Y-81811127D01*
X163079819Y-81836779D01*
X163079819Y-82237969D01*
X162154819Y-82237969D01*
X162106610Y-82255516D01*
X162080958Y-82299945D01*
X161936962Y-82299945D01*
X161936962Y-81503445D01*
X162079819Y-81503445D01*
X162086482Y-81521753D01*
X162089867Y-81540945D01*
X162095051Y-81545295D01*
X162097366Y-81551654D01*
X162114239Y-81561396D01*
X162129167Y-81573922D01*
X162138909Y-81575639D01*
X162141795Y-81577306D01*
X162145077Y-81576727D01*
X162154819Y-81578445D01*
X163154819Y-81578445D01*
X163173127Y-81571781D01*
X163192319Y-81568397D01*
X163196669Y-81563212D01*
X163203028Y-81560898D01*
X163212770Y-81544024D01*
X163225296Y-81529097D01*
X163227013Y-81519354D01*
X163228680Y-81516469D01*
X163228101Y-81513186D01*
X163229819Y-81503445D01*
X163229819Y-81027255D01*
X163212272Y-80979046D01*
X163167843Y-80953394D01*
X163117319Y-80962303D01*
X163084342Y-81001603D01*
X163079819Y-81027255D01*
X163079819Y-81428445D01*
X162706009Y-81428445D01*
X162706009Y-81170112D01*
X162688462Y-81121903D01*
X162644033Y-81096251D01*
X162593509Y-81105160D01*
X162560532Y-81144460D01*
X162556009Y-81170112D01*
X162556009Y-81428445D01*
X162229819Y-81428445D01*
X162229819Y-81027255D01*
X162212272Y-80979046D01*
X162167843Y-80953394D01*
X162117319Y-80962303D01*
X162084342Y-81001603D01*
X162079819Y-81027255D01*
X162079819Y-81503445D01*
X161936962Y-81503445D01*
X161936962Y-80598683D01*
X162079819Y-80598683D01*
X162086482Y-80616991D01*
X162089867Y-80636183D01*
X162095051Y-80640533D01*
X162097366Y-80646892D01*
X162114239Y-80656634D01*
X162129167Y-80669160D01*
X162138909Y-80670877D01*
X162141795Y-80672544D01*
X162145077Y-80671965D01*
X162154819Y-80673683D01*
X163154819Y-80673683D01*
X163173127Y-80667019D01*
X163192319Y-80663635D01*
X163196669Y-80658450D01*
X163203028Y-80656136D01*
X163212770Y-80639262D01*
X163225296Y-80624335D01*
X163227013Y-80614592D01*
X163228680Y-80611707D01*
X163228101Y-80608424D01*
X163229819Y-80598683D01*
X163229819Y-80360588D01*
X163229259Y-80359050D01*
X163225970Y-80336870D01*
X163178351Y-80194014D01*
X163175564Y-80190503D01*
X163175174Y-80186035D01*
X163160233Y-80164698D01*
X163064994Y-80069460D01*
X163063512Y-80068769D01*
X163045502Y-80055411D01*
X162950264Y-80007792D01*
X162946735Y-80007385D01*
X162934913Y-80002113D01*
X162744437Y-79954494D01*
X162740988Y-79954854D01*
X162726247Y-79952255D01*
X162583390Y-79952255D01*
X162580132Y-79953440D01*
X162565200Y-79954494D01*
X162374724Y-80002113D01*
X162371779Y-80004101D01*
X162359373Y-80007792D01*
X162264135Y-80055411D01*
X162263011Y-80056597D01*
X162244643Y-80069460D01*
X162149405Y-80164698D01*
X162147510Y-80168761D01*
X162143689Y-80171109D01*
X162131287Y-80194014D01*
X162083668Y-80336871D01*
X162083712Y-80338505D01*
X162079819Y-80360588D01*
X162079819Y-80598683D01*
X161936962Y-80598683D01*
X161936962Y-79204707D01*
X162319053Y-79204707D01*
X162327962Y-79255231D01*
X162367262Y-79288208D01*
X162392914Y-79292731D01*
X162698866Y-79292731D01*
X162698866Y-79598683D01*
X162716413Y-79646892D01*
X162760842Y-79672544D01*
X162811366Y-79663635D01*
X162844343Y-79624335D01*
X162848866Y-79598683D01*
X162848866Y-79292731D01*
X163154819Y-79292731D01*
X163203028Y-79275184D01*
X163228680Y-79230755D01*
X163219771Y-79180231D01*
X163180471Y-79147254D01*
X163154819Y-79142731D01*
X162848866Y-79142731D01*
X162848866Y-78836779D01*
X162831319Y-78788570D01*
X162786890Y-78762918D01*
X162736366Y-78771827D01*
X162703389Y-78811127D01*
X162698866Y-78836779D01*
X162698866Y-79142731D01*
X162392914Y-79142731D01*
X162344705Y-79160278D01*
X162319053Y-79204707D01*
X161936962Y-79204707D01*
X161936962Y-78620061D01*
X163372676Y-78620061D01*
X163372676Y-82530826D01*
G37*
G36*
X160890547Y-80145638D02*
G01*
X160967534Y-80184132D01*
X161041648Y-80258245D01*
X161079819Y-80372758D01*
X161079819Y-80523683D01*
X160229819Y-80523683D01*
X160229819Y-80372758D01*
X160267990Y-80258244D01*
X160342103Y-80184132D01*
X160419090Y-80145638D01*
X160592624Y-80102255D01*
X160717013Y-80102255D01*
X160890547Y-80145638D01*
G37*
G36*
X161372676Y-82530826D02*
G01*
X159936962Y-82530826D01*
X159936962Y-82299945D01*
X160080958Y-82299945D01*
X160089867Y-82350469D01*
X160129167Y-82383446D01*
X160154819Y-82387969D01*
X161154819Y-82387969D01*
X161173127Y-82381305D01*
X161192319Y-82377921D01*
X161196669Y-82372736D01*
X161203028Y-82370422D01*
X161212770Y-82353548D01*
X161225296Y-82338621D01*
X161227013Y-82328878D01*
X161228680Y-82325993D01*
X161228101Y-82322710D01*
X161229819Y-82312969D01*
X161229819Y-81836779D01*
X161212272Y-81788570D01*
X161167843Y-81762918D01*
X161117319Y-81771827D01*
X161084342Y-81811127D01*
X161079819Y-81836779D01*
X161079819Y-82237969D01*
X160154819Y-82237969D01*
X160106610Y-82255516D01*
X160080958Y-82299945D01*
X159936962Y-82299945D01*
X159936962Y-81503445D01*
X160079819Y-81503445D01*
X160086482Y-81521753D01*
X160089867Y-81540945D01*
X160095051Y-81545295D01*
X160097366Y-81551654D01*
X160114239Y-81561396D01*
X160129167Y-81573922D01*
X160138909Y-81575639D01*
X160141795Y-81577306D01*
X160145077Y-81576727D01*
X160154819Y-81578445D01*
X161154819Y-81578445D01*
X161173127Y-81571781D01*
X161192319Y-81568397D01*
X161196669Y-81563212D01*
X161203028Y-81560898D01*
X161212770Y-81544024D01*
X161225296Y-81529097D01*
X161227013Y-81519354D01*
X161228680Y-81516469D01*
X161228101Y-81513186D01*
X161229819Y-81503445D01*
X161229819Y-81027255D01*
X161212272Y-80979046D01*
X161167843Y-80953394D01*
X161117319Y-80962303D01*
X161084342Y-81001603D01*
X161079819Y-81027255D01*
X161079819Y-81428445D01*
X160706009Y-81428445D01*
X160706009Y-81170112D01*
X160688462Y-81121903D01*
X160644033Y-81096251D01*
X160593509Y-81105160D01*
X160560532Y-81144460D01*
X160556009Y-81170112D01*
X160556009Y-81428445D01*
X160229819Y-81428445D01*
X160229819Y-81027255D01*
X160212272Y-80979046D01*
X160167843Y-80953394D01*
X160117319Y-80962303D01*
X160084342Y-81001603D01*
X160079819Y-81027255D01*
X160079819Y-81503445D01*
X159936962Y-81503445D01*
X159936962Y-80598683D01*
X160079819Y-80598683D01*
X160086482Y-80616991D01*
X160089867Y-80636183D01*
X160095051Y-80640533D01*
X160097366Y-80646892D01*
X160114239Y-80656634D01*
X160129167Y-80669160D01*
X160138909Y-80670877D01*
X160141795Y-80672544D01*
X160145077Y-80671965D01*
X160154819Y-80673683D01*
X161154819Y-80673683D01*
X161173127Y-80667019D01*
X161192319Y-80663635D01*
X161196669Y-80658450D01*
X161203028Y-80656136D01*
X161212770Y-80639262D01*
X161225296Y-80624335D01*
X161227013Y-80614592D01*
X161228680Y-80611707D01*
X161228101Y-80608424D01*
X161229819Y-80598683D01*
X161229819Y-80360588D01*
X161229259Y-80359050D01*
X161225970Y-80336870D01*
X161178351Y-80194014D01*
X161175564Y-80190503D01*
X161175174Y-80186035D01*
X161160233Y-80164698D01*
X161064994Y-80069460D01*
X161063512Y-80068769D01*
X161045502Y-80055411D01*
X160950264Y-80007792D01*
X160946735Y-80007385D01*
X160934913Y-80002113D01*
X160744437Y-79954494D01*
X160740988Y-79954854D01*
X160726247Y-79952255D01*
X160583390Y-79952255D01*
X160580132Y-79953440D01*
X160565200Y-79954494D01*
X160374724Y-80002113D01*
X160371779Y-80004101D01*
X160359373Y-80007792D01*
X160264135Y-80055411D01*
X160263011Y-80056597D01*
X160244643Y-80069460D01*
X160149405Y-80164698D01*
X160147510Y-80168761D01*
X160143689Y-80171109D01*
X160131287Y-80194014D01*
X160083668Y-80336871D01*
X160083712Y-80338505D01*
X160079819Y-80360588D01*
X160079819Y-80598683D01*
X159936962Y-80598683D01*
X159936962Y-79598683D01*
X160698866Y-79598683D01*
X160716413Y-79646892D01*
X160760842Y-79672544D01*
X160811366Y-79663635D01*
X160844343Y-79624335D01*
X160848866Y-79598683D01*
X160848866Y-78836779D01*
X160831319Y-78788570D01*
X160786890Y-78762918D01*
X160736366Y-78771827D01*
X160703389Y-78811127D01*
X160698866Y-78836779D01*
X160698866Y-79598683D01*
X159936962Y-79598683D01*
X159936962Y-78620061D01*
X161372676Y-78620061D01*
X161372676Y-82530826D01*
G37*
G36*
X143590547Y-78907543D02*
G01*
X143667534Y-78946037D01*
X143741648Y-79020150D01*
X143779819Y-79134663D01*
X143779819Y-79285588D01*
X142929819Y-79285588D01*
X142929819Y-79134663D01*
X142967990Y-79020149D01*
X143042103Y-78946037D01*
X143119090Y-78907543D01*
X143292624Y-78864160D01*
X143417013Y-78864160D01*
X143590547Y-78907543D01*
G37*
G36*
X144072676Y-81673683D02*
G01*
X142636962Y-81673683D01*
X142636962Y-81122493D01*
X142779819Y-81122493D01*
X142780379Y-81124031D01*
X142783668Y-81146210D01*
X142831287Y-81289067D01*
X142834074Y-81292579D01*
X142834465Y-81297046D01*
X142849405Y-81318383D01*
X142944643Y-81413621D01*
X142946124Y-81414311D01*
X142964135Y-81427670D01*
X143059373Y-81475289D01*
X143062901Y-81475695D01*
X143074724Y-81480968D01*
X143265200Y-81528587D01*
X143268648Y-81528226D01*
X143283390Y-81530826D01*
X143426247Y-81530826D01*
X143429504Y-81529640D01*
X143444437Y-81528587D01*
X143634913Y-81480968D01*
X143637857Y-81478979D01*
X143650264Y-81475289D01*
X143745502Y-81427670D01*
X143746625Y-81426483D01*
X143764994Y-81413621D01*
X143860233Y-81318383D01*
X143862128Y-81314318D01*
X143865948Y-81311972D01*
X143878351Y-81289067D01*
X143925970Y-81146211D01*
X143925925Y-81144575D01*
X143929819Y-81122493D01*
X143929819Y-81027255D01*
X143929259Y-81025717D01*
X143925970Y-81003537D01*
X143878351Y-80860681D01*
X143875563Y-80857169D01*
X143875173Y-80852701D01*
X143860232Y-80831364D01*
X143812612Y-80783745D01*
X143797774Y-80776826D01*
X143785232Y-80766302D01*
X143769104Y-80763458D01*
X143766116Y-80762065D01*
X143764165Y-80762587D01*
X143759580Y-80761779D01*
X143426247Y-80761779D01*
X143407938Y-80768442D01*
X143388747Y-80771827D01*
X143384396Y-80777011D01*
X143378038Y-80779326D01*
X143368295Y-80796199D01*
X143355770Y-80811127D01*
X143354052Y-80820869D01*
X143352386Y-80823755D01*
X143352964Y-80827037D01*
X143351247Y-80836779D01*
X143351247Y-81027255D01*
X143368794Y-81075464D01*
X143413223Y-81101116D01*
X143463747Y-81092207D01*
X143496724Y-81052907D01*
X143501247Y-81027255D01*
X143501247Y-80911779D01*
X143728514Y-80911779D01*
X143741648Y-80924912D01*
X143779819Y-81039425D01*
X143779819Y-81110323D01*
X143741648Y-81224835D01*
X143667534Y-81298948D01*
X143590547Y-81337442D01*
X143417013Y-81380826D01*
X143292624Y-81380826D01*
X143119090Y-81337442D01*
X143042103Y-81298949D01*
X142967990Y-81224836D01*
X142929819Y-81110322D01*
X142929819Y-80997341D01*
X142969520Y-80917939D01*
X142975385Y-80866973D01*
X142947119Y-80824160D01*
X142897944Y-80809533D01*
X142850873Y-80829936D01*
X142835356Y-80850857D01*
X142787737Y-80946095D01*
X142787224Y-80950548D01*
X142784342Y-80953984D01*
X142779819Y-80979636D01*
X142779819Y-81122493D01*
X142636962Y-81122493D01*
X142636962Y-80395183D01*
X142780958Y-80395183D01*
X142784314Y-80414216D01*
X142784228Y-80433544D01*
X142788662Y-80438877D01*
X142789867Y-80445707D01*
X142804673Y-80458131D01*
X142817030Y-80472991D01*
X142823853Y-80474225D01*
X142829167Y-80478684D01*
X142854819Y-80483207D01*
X143854819Y-80483207D01*
X143903028Y-80465660D01*
X143928680Y-80421231D01*
X143919771Y-80370707D01*
X143880471Y-80337730D01*
X143854819Y-80333207D01*
X143137236Y-80333207D01*
X143892030Y-79901897D01*
X143896511Y-79896603D01*
X143903028Y-79894232D01*
X143912691Y-79877494D01*
X143925181Y-79862744D01*
X143925211Y-79855809D01*
X143928680Y-79849803D01*
X143925323Y-79830769D01*
X143925410Y-79811442D01*
X143920975Y-79806108D01*
X143919771Y-79799279D01*
X143904964Y-79786854D01*
X143892608Y-79771995D01*
X143885784Y-79770760D01*
X143880471Y-79766302D01*
X143854819Y-79761779D01*
X142854819Y-79761779D01*
X142806610Y-79779326D01*
X142780958Y-79823755D01*
X142789867Y-79874279D01*
X142829167Y-79907256D01*
X142854819Y-79911779D01*
X143572402Y-79911779D01*
X142817609Y-80343089D01*
X142813127Y-80348381D01*
X142806610Y-80350754D01*
X142796945Y-80367493D01*
X142784457Y-80382242D01*
X142784426Y-80389176D01*
X142780958Y-80395183D01*
X142636962Y-80395183D01*
X142636962Y-79360588D01*
X142779819Y-79360588D01*
X142786482Y-79378896D01*
X142789867Y-79398088D01*
X142795051Y-79402438D01*
X142797366Y-79408797D01*
X142814239Y-79418539D01*
X142829167Y-79431065D01*
X142838909Y-79432782D01*
X142841795Y-79434449D01*
X142845077Y-79433870D01*
X142854819Y-79435588D01*
X143854819Y-79435588D01*
X143873127Y-79428924D01*
X143892319Y-79425540D01*
X143896669Y-79420355D01*
X143903028Y-79418041D01*
X143912770Y-79401167D01*
X143925296Y-79386240D01*
X143927013Y-79376497D01*
X143928680Y-79373612D01*
X143928101Y-79370329D01*
X143929819Y-79360588D01*
X143929819Y-79122493D01*
X143929259Y-79120955D01*
X143925970Y-79098775D01*
X143878351Y-78955919D01*
X143875564Y-78952408D01*
X143875174Y-78947940D01*
X143860233Y-78926603D01*
X143764994Y-78831365D01*
X143763512Y-78830674D01*
X143745502Y-78817316D01*
X143650264Y-78769697D01*
X143646735Y-78769290D01*
X143634913Y-78764018D01*
X143444437Y-78716399D01*
X143440988Y-78716759D01*
X143426247Y-78714160D01*
X143283390Y-78714160D01*
X143280132Y-78715345D01*
X143265200Y-78716399D01*
X143074724Y-78764018D01*
X143071779Y-78766006D01*
X143059373Y-78769697D01*
X142964135Y-78817316D01*
X142963011Y-78818502D01*
X142944643Y-78831365D01*
X142849405Y-78926603D01*
X142847510Y-78930666D01*
X142843689Y-78933014D01*
X142831287Y-78955919D01*
X142783668Y-79098776D01*
X142783712Y-79100410D01*
X142779819Y-79122493D01*
X142779819Y-79360588D01*
X142636962Y-79360588D01*
X142636962Y-78571303D01*
X144072676Y-78571303D01*
X144072676Y-81673683D01*
G37*
G36*
X145673617Y-84380692D02*
G01*
X145745561Y-84452635D01*
X145779819Y-84521151D01*
X145779819Y-84676217D01*
X145745561Y-84744732D01*
X145673617Y-84816675D01*
X145512251Y-84857017D01*
X145197386Y-84857017D01*
X145036019Y-84816675D01*
X144964077Y-84744733D01*
X144929819Y-84676217D01*
X144929819Y-84521151D01*
X144964077Y-84452635D01*
X145036019Y-84380692D01*
X145197386Y-84340351D01*
X145512251Y-84340351D01*
X145673617Y-84380692D01*
G37*
G36*
X145191344Y-80755561D02*
G01*
X145221751Y-80785968D01*
X145256009Y-80854484D01*
X145256009Y-81095112D01*
X144929819Y-81095112D01*
X144929819Y-80854484D01*
X144964077Y-80785968D01*
X144994484Y-80755561D01*
X145063000Y-80721303D01*
X145122828Y-80721303D01*
X145191344Y-80755561D01*
G37*
G36*
X145715153Y-80707942D02*
G01*
X145745561Y-80738349D01*
X145779819Y-80806865D01*
X145779819Y-81095112D01*
X145406009Y-81095112D01*
X145406009Y-80848949D01*
X145444180Y-80734435D01*
X145470674Y-80707942D01*
X145539190Y-80673684D01*
X145646637Y-80673684D01*
X145715153Y-80707942D01*
G37*
G36*
X146072676Y-85578445D02*
G01*
X144636962Y-85578445D01*
X144636962Y-85347564D01*
X144780958Y-85347564D01*
X144789867Y-85398088D01*
X144829167Y-85431065D01*
X144854819Y-85435588D01*
X145854819Y-85435588D01*
X145903028Y-85418041D01*
X145928680Y-85373612D01*
X145919771Y-85323088D01*
X145880471Y-85290111D01*
X145854819Y-85285588D01*
X144854819Y-85285588D01*
X144806610Y-85303135D01*
X144780958Y-85347564D01*
X144636962Y-85347564D01*
X144636962Y-84693922D01*
X144779819Y-84693922D01*
X144781352Y-84698135D01*
X144780311Y-84702496D01*
X144787737Y-84727463D01*
X144835356Y-84822701D01*
X144836545Y-84823826D01*
X144849405Y-84842193D01*
X144944643Y-84937431D01*
X144951350Y-84940558D01*
X144955697Y-84946549D01*
X144979486Y-84957159D01*
X145169962Y-85004778D01*
X145173410Y-85004417D01*
X145188152Y-85007017D01*
X145521485Y-85007017D01*
X145524742Y-85005831D01*
X145539675Y-85004778D01*
X145730151Y-84957159D01*
X145736283Y-84953016D01*
X145743657Y-84952372D01*
X145764994Y-84937431D01*
X145860233Y-84842193D01*
X145860924Y-84840710D01*
X145874282Y-84822701D01*
X145921901Y-84727463D01*
X145922413Y-84723009D01*
X145925296Y-84719574D01*
X145929819Y-84693922D01*
X145929819Y-84503446D01*
X145928285Y-84499232D01*
X145929327Y-84494871D01*
X145921901Y-84469905D01*
X145874282Y-84374667D01*
X145873095Y-84373543D01*
X145860233Y-84355175D01*
X145764994Y-84259937D01*
X145758286Y-84256809D01*
X145753940Y-84250819D01*
X145730151Y-84240209D01*
X145539675Y-84192590D01*
X145536226Y-84192950D01*
X145521485Y-84190351D01*
X145188152Y-84190351D01*
X145184894Y-84191536D01*
X145169962Y-84192590D01*
X144979486Y-84240209D01*
X144973353Y-84244350D01*
X144965980Y-84244996D01*
X144944643Y-84259937D01*
X144849405Y-84355175D01*
X144848714Y-84356656D01*
X144835356Y-84374667D01*
X144787737Y-84469905D01*
X144787224Y-84474358D01*
X144784342Y-84477794D01*
X144779819Y-84503446D01*
X144779819Y-84693922D01*
X144636962Y-84693922D01*
X144636962Y-83741541D01*
X144779819Y-83741541D01*
X144781352Y-83745754D01*
X144780311Y-83750115D01*
X144787737Y-83775082D01*
X144835356Y-83870320D01*
X144836545Y-83871445D01*
X144849405Y-83889812D01*
X144897024Y-83937431D01*
X144943520Y-83959112D01*
X144993075Y-83945835D01*
X145022501Y-83903809D01*
X145018030Y-83852702D01*
X145003090Y-83831365D01*
X144964077Y-83792352D01*
X144929819Y-83723836D01*
X144929819Y-83521151D01*
X144964077Y-83452635D01*
X144994484Y-83422228D01*
X145063000Y-83387970D01*
X145128363Y-83387970D01*
X145242876Y-83426141D01*
X145801786Y-83985050D01*
X145822239Y-83994587D01*
X145841795Y-84005878D01*
X145845175Y-84005281D01*
X145848283Y-84006731D01*
X145870085Y-84000889D01*
X145892319Y-83996969D01*
X145894523Y-83994341D01*
X145897837Y-83993454D01*
X145910785Y-83974962D01*
X145925296Y-83957669D01*
X145926104Y-83953084D01*
X145927264Y-83951428D01*
X145926976Y-83948139D01*
X145929819Y-83932017D01*
X145929819Y-83312970D01*
X145912272Y-83264761D01*
X145867843Y-83239109D01*
X145817319Y-83248018D01*
X145784342Y-83287318D01*
X145779819Y-83312970D01*
X145779819Y-83750951D01*
X145336423Y-83307556D01*
X145332359Y-83305661D01*
X145330012Y-83301840D01*
X145307107Y-83289438D01*
X145164250Y-83241819D01*
X145162615Y-83241863D01*
X145140533Y-83237970D01*
X145045295Y-83237970D01*
X145041081Y-83239503D01*
X145036720Y-83238462D01*
X145011754Y-83245888D01*
X144916516Y-83293507D01*
X144915390Y-83294696D01*
X144897024Y-83307556D01*
X144849405Y-83355175D01*
X144848714Y-83356656D01*
X144835356Y-83374667D01*
X144787737Y-83469905D01*
X144787224Y-83474358D01*
X144784342Y-83477794D01*
X144779819Y-83503446D01*
X144779819Y-83741541D01*
X144636962Y-83741541D01*
X144636962Y-82641476D01*
X144779974Y-82641476D01*
X144786087Y-82662367D01*
X144789867Y-82683803D01*
X144793170Y-82686575D01*
X144794382Y-82690714D01*
X144813216Y-82708707D01*
X144949894Y-82799825D01*
X145031275Y-82881206D01*
X145073451Y-82965558D01*
X145110705Y-83000830D01*
X145161915Y-83003905D01*
X145203121Y-82973341D01*
X145215041Y-82923442D01*
X145207615Y-82898476D01*
X145159996Y-82803238D01*
X145158809Y-82802114D01*
X145145947Y-82783746D01*
X145083504Y-82721303D01*
X145779819Y-82721303D01*
X145779819Y-82932017D01*
X145797366Y-82980226D01*
X145841795Y-83005878D01*
X145892319Y-82996969D01*
X145925296Y-82957669D01*
X145929819Y-82932017D01*
X145929819Y-82360589D01*
X145912272Y-82312380D01*
X145867843Y-82286728D01*
X145817319Y-82295637D01*
X145784342Y-82334937D01*
X145779819Y-82360589D01*
X145779819Y-82571303D01*
X144854819Y-82571303D01*
X144850765Y-82572778D01*
X144846576Y-82571758D01*
X144827063Y-82581405D01*
X144806610Y-82588850D01*
X144804454Y-82592584D01*
X144800587Y-82594496D01*
X144791840Y-82614430D01*
X144780958Y-82633279D01*
X144781706Y-82637526D01*
X144779974Y-82641476D01*
X144636962Y-82641476D01*
X144636962Y-81170112D01*
X144779819Y-81170112D01*
X144786482Y-81188420D01*
X144789867Y-81207612D01*
X144795051Y-81211962D01*
X144797366Y-81218321D01*
X144814239Y-81228063D01*
X144829167Y-81240589D01*
X144838909Y-81242306D01*
X144841795Y-81243973D01*
X144845077Y-81243394D01*
X144854819Y-81245112D01*
X145854819Y-81245112D01*
X145873127Y-81238448D01*
X145892319Y-81235064D01*
X145896669Y-81229879D01*
X145903028Y-81227565D01*
X145912770Y-81210691D01*
X145925296Y-81195764D01*
X145927013Y-81186021D01*
X145928680Y-81183136D01*
X145928101Y-81179853D01*
X145929819Y-81170112D01*
X145929819Y-80789160D01*
X145928285Y-80784946D01*
X145929327Y-80780585D01*
X145921901Y-80755619D01*
X145874282Y-80660381D01*
X145873094Y-80659256D01*
X145860232Y-80640888D01*
X145812612Y-80593269D01*
X145811129Y-80592577D01*
X145793121Y-80579221D01*
X145697883Y-80531602D01*
X145693429Y-80531089D01*
X145689994Y-80528207D01*
X145664342Y-80523684D01*
X145521485Y-80523684D01*
X145517271Y-80525217D01*
X145512910Y-80524176D01*
X145487944Y-80531602D01*
X145392706Y-80579221D01*
X145391580Y-80580410D01*
X145373214Y-80593270D01*
X145325595Y-80640889D01*
X145323700Y-80644952D01*
X145319879Y-80647300D01*
X145311215Y-80663300D01*
X145288804Y-80640889D01*
X145287322Y-80640198D01*
X145269312Y-80626840D01*
X145174074Y-80579221D01*
X145169620Y-80578708D01*
X145166185Y-80575826D01*
X145140533Y-80571303D01*
X145045295Y-80571303D01*
X145041081Y-80572836D01*
X145036720Y-80571795D01*
X145011754Y-80579221D01*
X144916516Y-80626840D01*
X144915390Y-80628029D01*
X144897024Y-80640889D01*
X144849405Y-80688508D01*
X144848714Y-80689989D01*
X144835356Y-80708000D01*
X144787737Y-80803238D01*
X144787224Y-80807691D01*
X144784342Y-80811127D01*
X144779819Y-80836779D01*
X144779819Y-81170112D01*
X144636962Y-81170112D01*
X144636962Y-80312969D01*
X144779819Y-80312969D01*
X144797366Y-80361178D01*
X144841795Y-80386830D01*
X144892319Y-80377921D01*
X144925296Y-80338621D01*
X144929819Y-80312969D01*
X144929819Y-80102255D01*
X145854819Y-80102255D01*
X145903028Y-80084708D01*
X145928680Y-80040279D01*
X145919771Y-79989755D01*
X145880471Y-79956778D01*
X145854819Y-79952255D01*
X144929819Y-79952255D01*
X144929819Y-79741541D01*
X144912272Y-79693332D01*
X144867843Y-79667680D01*
X144817319Y-79676589D01*
X144784342Y-79715889D01*
X144779819Y-79741541D01*
X144779819Y-80312969D01*
X144636962Y-80312969D01*
X144636962Y-79395183D01*
X144780958Y-79395183D01*
X144784314Y-79414216D01*
X144784228Y-79433544D01*
X144788662Y-79438877D01*
X144789867Y-79445707D01*
X144804673Y-79458131D01*
X144817030Y-79472991D01*
X144823853Y-79474225D01*
X144829167Y-79478684D01*
X144854819Y-79483207D01*
X145854819Y-79483207D01*
X145903028Y-79465660D01*
X145928680Y-79421231D01*
X145919771Y-79370707D01*
X145880471Y-79337730D01*
X145854819Y-79333207D01*
X145137236Y-79333207D01*
X145892030Y-78901897D01*
X145896511Y-78896603D01*
X145903028Y-78894232D01*
X145912691Y-78877494D01*
X145925181Y-78862744D01*
X145925211Y-78855809D01*
X145928680Y-78849803D01*
X145925323Y-78830769D01*
X145925410Y-78811442D01*
X145920975Y-78806108D01*
X145919771Y-78799279D01*
X145904964Y-78786854D01*
X145892608Y-78771995D01*
X145885784Y-78770760D01*
X145880471Y-78766302D01*
X145854819Y-78761779D01*
X144854819Y-78761779D01*
X144806610Y-78779326D01*
X144780958Y-78823755D01*
X144789867Y-78874279D01*
X144829167Y-78907256D01*
X144854819Y-78911779D01*
X145572402Y-78911779D01*
X144817609Y-79343089D01*
X144813127Y-79348381D01*
X144806610Y-79350754D01*
X144796945Y-79367493D01*
X144784457Y-79382242D01*
X144784426Y-79389176D01*
X144780958Y-79395183D01*
X144636962Y-79395183D01*
X144636962Y-78618922D01*
X146072676Y-78618922D01*
X146072676Y-85578445D01*
G37*
G36*
X147673617Y-84285454D02*
G01*
X147745561Y-84357397D01*
X147779819Y-84425913D01*
X147779819Y-84580979D01*
X147745561Y-84649494D01*
X147673617Y-84721437D01*
X147512251Y-84761779D01*
X147197386Y-84761779D01*
X147036019Y-84721437D01*
X146964077Y-84649495D01*
X146929819Y-84580979D01*
X146929819Y-84425913D01*
X146964077Y-84357397D01*
X147036019Y-84285454D01*
X147197386Y-84245113D01*
X147512251Y-84245113D01*
X147673617Y-84285454D01*
G37*
G36*
X147590547Y-78907543D02*
G01*
X147667534Y-78946037D01*
X147741648Y-79020150D01*
X147779819Y-79134663D01*
X147779819Y-79285588D01*
X146929819Y-79285588D01*
X146929819Y-79134663D01*
X146967990Y-79020149D01*
X147042103Y-78946037D01*
X147119090Y-78907543D01*
X147292624Y-78864160D01*
X147417013Y-78864160D01*
X147590547Y-78907543D01*
G37*
G36*
X148072676Y-85483207D02*
G01*
X146636962Y-85483207D01*
X146636962Y-85252326D01*
X146780958Y-85252326D01*
X146789867Y-85302850D01*
X146829167Y-85335827D01*
X146854819Y-85340350D01*
X147854819Y-85340350D01*
X147903028Y-85322803D01*
X147928680Y-85278374D01*
X147919771Y-85227850D01*
X147880471Y-85194873D01*
X147854819Y-85190350D01*
X146854819Y-85190350D01*
X146806610Y-85207897D01*
X146780958Y-85252326D01*
X146636962Y-85252326D01*
X146636962Y-84598684D01*
X146779819Y-84598684D01*
X146781352Y-84602897D01*
X146780311Y-84607258D01*
X146787737Y-84632225D01*
X146835356Y-84727463D01*
X146836545Y-84728588D01*
X146849405Y-84746955D01*
X146944643Y-84842193D01*
X146951350Y-84845320D01*
X146955697Y-84851311D01*
X146979486Y-84861921D01*
X147169962Y-84909540D01*
X147173410Y-84909179D01*
X147188152Y-84911779D01*
X147521485Y-84911779D01*
X147524742Y-84910593D01*
X147539675Y-84909540D01*
X147730151Y-84861921D01*
X147736283Y-84857778D01*
X147743657Y-84857134D01*
X147764994Y-84842193D01*
X147860233Y-84746955D01*
X147860924Y-84745472D01*
X147874282Y-84727463D01*
X147921901Y-84632225D01*
X147922413Y-84627771D01*
X147925296Y-84624336D01*
X147929819Y-84598684D01*
X147929819Y-84408208D01*
X147928285Y-84403994D01*
X147929327Y-84399633D01*
X147921901Y-84374667D01*
X147874282Y-84279429D01*
X147873095Y-84278305D01*
X147860233Y-84259937D01*
X147764994Y-84164699D01*
X147758286Y-84161571D01*
X147753940Y-84155581D01*
X147730151Y-84144971D01*
X147539675Y-84097352D01*
X147536226Y-84097712D01*
X147521485Y-84095113D01*
X147188152Y-84095113D01*
X147184894Y-84096298D01*
X147169962Y-84097352D01*
X146979486Y-84144971D01*
X146973353Y-84149112D01*
X146965980Y-84149758D01*
X146944643Y-84164699D01*
X146849405Y-84259937D01*
X146848714Y-84261418D01*
X146835356Y-84279429D01*
X146787737Y-84374667D01*
X146787224Y-84379120D01*
X146784342Y-84382556D01*
X146779819Y-84408208D01*
X146779819Y-84598684D01*
X146636962Y-84598684D01*
X146636962Y-83836779D01*
X146779819Y-83836779D01*
X146797366Y-83884988D01*
X146841795Y-83910640D01*
X146892319Y-83901731D01*
X146925296Y-83862431D01*
X146929819Y-83836779D01*
X146929819Y-83383014D01*
X147186383Y-83607508D01*
X147205234Y-83614814D01*
X147222747Y-83624926D01*
X147228640Y-83623886D01*
X147234219Y-83626049D01*
X147253358Y-83619528D01*
X147273271Y-83616017D01*
X147277116Y-83611433D01*
X147282781Y-83609504D01*
X147293251Y-83592205D01*
X147306248Y-83576717D01*
X147307736Y-83568273D01*
X147309346Y-83565615D01*
X147308812Y-83562173D01*
X147310771Y-83551065D01*
X147310771Y-83425913D01*
X147345029Y-83357397D01*
X147375436Y-83326990D01*
X147443952Y-83292732D01*
X147646637Y-83292732D01*
X147715153Y-83326990D01*
X147745561Y-83357397D01*
X147779819Y-83425913D01*
X147779819Y-83676217D01*
X147745561Y-83744732D01*
X147706548Y-83783745D01*
X147684866Y-83830242D01*
X147698143Y-83879797D01*
X147740168Y-83909223D01*
X147791275Y-83904753D01*
X147812612Y-83889813D01*
X147860232Y-83842194D01*
X147860922Y-83840712D01*
X147874282Y-83822701D01*
X147921901Y-83727463D01*
X147922413Y-83723009D01*
X147925296Y-83719574D01*
X147929819Y-83693922D01*
X147929819Y-83408208D01*
X147928285Y-83403994D01*
X147929327Y-83399633D01*
X147921901Y-83374667D01*
X147874282Y-83279429D01*
X147873094Y-83278304D01*
X147860232Y-83259936D01*
X147812612Y-83212317D01*
X147811129Y-83211625D01*
X147793121Y-83198269D01*
X147697883Y-83150650D01*
X147693429Y-83150137D01*
X147689994Y-83147255D01*
X147664342Y-83142732D01*
X147426247Y-83142732D01*
X147422033Y-83144265D01*
X147417672Y-83143224D01*
X147392706Y-83150650D01*
X147297468Y-83198269D01*
X147296342Y-83199458D01*
X147277976Y-83212318D01*
X147230357Y-83259937D01*
X147229666Y-83261418D01*
X147216308Y-83279429D01*
X147168689Y-83374667D01*
X147168176Y-83379120D01*
X147165294Y-83382556D01*
X147164196Y-83388779D01*
X146904207Y-83161289D01*
X146885355Y-83153982D01*
X146867843Y-83143871D01*
X146861949Y-83144910D01*
X146856371Y-83142748D01*
X146837231Y-83149268D01*
X146817319Y-83152780D01*
X146813473Y-83157363D01*
X146807809Y-83159293D01*
X146797338Y-83176591D01*
X146784342Y-83192080D01*
X146782853Y-83200523D01*
X146781244Y-83203182D01*
X146781777Y-83206623D01*
X146779819Y-83217732D01*
X146779819Y-83836779D01*
X146636962Y-83836779D01*
X146636962Y-82693922D01*
X146779819Y-82693922D01*
X146781352Y-82698135D01*
X146780311Y-82702496D01*
X146787737Y-82727463D01*
X146835356Y-82822701D01*
X146836545Y-82823826D01*
X146849405Y-82842193D01*
X146897024Y-82889812D01*
X146943520Y-82911493D01*
X146993075Y-82898216D01*
X147022501Y-82856190D01*
X147018030Y-82805083D01*
X147003090Y-82783746D01*
X146964077Y-82744733D01*
X146929819Y-82676217D01*
X146929819Y-82473532D01*
X146964077Y-82405016D01*
X146994484Y-82374609D01*
X147063000Y-82340351D01*
X147128363Y-82340351D01*
X147242876Y-82378522D01*
X147801786Y-82937431D01*
X147822239Y-82946968D01*
X147841795Y-82958259D01*
X147845175Y-82957662D01*
X147848283Y-82959112D01*
X147870085Y-82953270D01*
X147892319Y-82949350D01*
X147894523Y-82946722D01*
X147897837Y-82945835D01*
X147910785Y-82927343D01*
X147925296Y-82910050D01*
X147926104Y-82905465D01*
X147927264Y-82903809D01*
X147926976Y-82900520D01*
X147929819Y-82884398D01*
X147929819Y-82265351D01*
X147912272Y-82217142D01*
X147867843Y-82191490D01*
X147817319Y-82200399D01*
X147784342Y-82239699D01*
X147779819Y-82265351D01*
X147779819Y-82703332D01*
X147336423Y-82259937D01*
X147332359Y-82258042D01*
X147330012Y-82254221D01*
X147307107Y-82241819D01*
X147164250Y-82194200D01*
X147162615Y-82194244D01*
X147140533Y-82190351D01*
X147045295Y-82190351D01*
X147041081Y-82191884D01*
X147036720Y-82190843D01*
X147011754Y-82198269D01*
X146916516Y-82245888D01*
X146915390Y-82247077D01*
X146897024Y-82259937D01*
X146849405Y-82307556D01*
X146848714Y-82309037D01*
X146835356Y-82327048D01*
X146787737Y-82422286D01*
X146787224Y-82426739D01*
X146784342Y-82430175D01*
X146779819Y-82455827D01*
X146779819Y-82693922D01*
X146636962Y-82693922D01*
X146636962Y-81061850D01*
X146780958Y-81061850D01*
X146789867Y-81112374D01*
X146829167Y-81145351D01*
X146854819Y-81149874D01*
X147854819Y-81149874D01*
X147873127Y-81143210D01*
X147892319Y-81139826D01*
X147896669Y-81134641D01*
X147903028Y-81132327D01*
X147912770Y-81115453D01*
X147925296Y-81100526D01*
X147927013Y-81090783D01*
X147928680Y-81087898D01*
X147928101Y-81084615D01*
X147929819Y-81074874D01*
X147929819Y-80598684D01*
X147912272Y-80550475D01*
X147867843Y-80524823D01*
X147817319Y-80533732D01*
X147784342Y-80573032D01*
X147779819Y-80598684D01*
X147779819Y-80999874D01*
X146854819Y-80999874D01*
X146806610Y-81017421D01*
X146780958Y-81061850D01*
X146636962Y-81061850D01*
X146636962Y-80265350D01*
X146779819Y-80265350D01*
X146786482Y-80283658D01*
X146789867Y-80302850D01*
X146795051Y-80307200D01*
X146797366Y-80313559D01*
X146814239Y-80323301D01*
X146829167Y-80335827D01*
X146838909Y-80337544D01*
X146841795Y-80339211D01*
X146845077Y-80338632D01*
X146854819Y-80340350D01*
X147854819Y-80340350D01*
X147873127Y-80333686D01*
X147892319Y-80330302D01*
X147896669Y-80325117D01*
X147903028Y-80322803D01*
X147912770Y-80305929D01*
X147925296Y-80291002D01*
X147927013Y-80281259D01*
X147928680Y-80278374D01*
X147928101Y-80275091D01*
X147929819Y-80265350D01*
X147929819Y-79789160D01*
X147912272Y-79740951D01*
X147867843Y-79715299D01*
X147817319Y-79724208D01*
X147784342Y-79763508D01*
X147779819Y-79789160D01*
X147779819Y-80190350D01*
X147406009Y-80190350D01*
X147406009Y-79932017D01*
X147388462Y-79883808D01*
X147344033Y-79858156D01*
X147293509Y-79867065D01*
X147260532Y-79906365D01*
X147256009Y-79932017D01*
X147256009Y-80190350D01*
X146929819Y-80190350D01*
X146929819Y-79789160D01*
X146912272Y-79740951D01*
X146867843Y-79715299D01*
X146817319Y-79724208D01*
X146784342Y-79763508D01*
X146779819Y-79789160D01*
X146779819Y-80265350D01*
X146636962Y-80265350D01*
X146636962Y-79360588D01*
X146779819Y-79360588D01*
X146786482Y-79378896D01*
X146789867Y-79398088D01*
X146795051Y-79402438D01*
X146797366Y-79408797D01*
X146814239Y-79418539D01*
X146829167Y-79431065D01*
X146838909Y-79432782D01*
X146841795Y-79434449D01*
X146845077Y-79433870D01*
X146854819Y-79435588D01*
X147854819Y-79435588D01*
X147873127Y-79428924D01*
X147892319Y-79425540D01*
X147896669Y-79420355D01*
X147903028Y-79418041D01*
X147912770Y-79401167D01*
X147925296Y-79386240D01*
X147927013Y-79376497D01*
X147928680Y-79373612D01*
X147928101Y-79370329D01*
X147929819Y-79360588D01*
X147929819Y-79122493D01*
X147929259Y-79120955D01*
X147925970Y-79098775D01*
X147878351Y-78955919D01*
X147875564Y-78952408D01*
X147875174Y-78947940D01*
X147860233Y-78926603D01*
X147764994Y-78831365D01*
X147763512Y-78830674D01*
X147745502Y-78817316D01*
X147650264Y-78769697D01*
X147646735Y-78769290D01*
X147634913Y-78764018D01*
X147444437Y-78716399D01*
X147440988Y-78716759D01*
X147426247Y-78714160D01*
X147283390Y-78714160D01*
X147280132Y-78715345D01*
X147265200Y-78716399D01*
X147074724Y-78764018D01*
X147071779Y-78766006D01*
X147059373Y-78769697D01*
X146964135Y-78817316D01*
X146963011Y-78818502D01*
X146944643Y-78831365D01*
X146849405Y-78926603D01*
X146847510Y-78930666D01*
X146843689Y-78933014D01*
X146831287Y-78955919D01*
X146783668Y-79098776D01*
X146783712Y-79100410D01*
X146779819Y-79122493D01*
X146779819Y-79360588D01*
X146636962Y-79360588D01*
X146636962Y-78571303D01*
X148072676Y-78571303D01*
X148072676Y-85483207D01*
G37*
G36*
X156890547Y-78907543D02*
G01*
X156967534Y-78946037D01*
X157041648Y-79020150D01*
X157079819Y-79134663D01*
X157079819Y-79285588D01*
X156229819Y-79285588D01*
X156229819Y-79134663D01*
X156267990Y-79020149D01*
X156342103Y-78946037D01*
X156419090Y-78907543D01*
X156592624Y-78864160D01*
X156717013Y-78864160D01*
X156890547Y-78907543D01*
G37*
G36*
X157372676Y-81673683D02*
G01*
X155936962Y-81673683D01*
X155936962Y-81122493D01*
X156079819Y-81122493D01*
X156080379Y-81124031D01*
X156083668Y-81146210D01*
X156131287Y-81289067D01*
X156134074Y-81292579D01*
X156134465Y-81297046D01*
X156149405Y-81318383D01*
X156244643Y-81413621D01*
X156246124Y-81414311D01*
X156264135Y-81427670D01*
X156359373Y-81475289D01*
X156362901Y-81475695D01*
X156374724Y-81480968D01*
X156565200Y-81528587D01*
X156568648Y-81528226D01*
X156583390Y-81530826D01*
X156726247Y-81530826D01*
X156729504Y-81529640D01*
X156744437Y-81528587D01*
X156934913Y-81480968D01*
X156937857Y-81478979D01*
X156950264Y-81475289D01*
X157045502Y-81427670D01*
X157046625Y-81426483D01*
X157064994Y-81413621D01*
X157160233Y-81318383D01*
X157162128Y-81314318D01*
X157165948Y-81311972D01*
X157178351Y-81289067D01*
X157225970Y-81146211D01*
X157225925Y-81144575D01*
X157229819Y-81122493D01*
X157229819Y-81027255D01*
X157229259Y-81025717D01*
X157225970Y-81003537D01*
X157178351Y-80860681D01*
X157175563Y-80857169D01*
X157175173Y-80852701D01*
X157160232Y-80831364D01*
X157112612Y-80783745D01*
X157097774Y-80776826D01*
X157085232Y-80766302D01*
X157069104Y-80763458D01*
X157066116Y-80762065D01*
X157064165Y-80762587D01*
X157059580Y-80761779D01*
X156726247Y-80761779D01*
X156707938Y-80768442D01*
X156688747Y-80771827D01*
X156684396Y-80777011D01*
X156678038Y-80779326D01*
X156668295Y-80796199D01*
X156655770Y-80811127D01*
X156654052Y-80820869D01*
X156652386Y-80823755D01*
X156652964Y-80827037D01*
X156651247Y-80836779D01*
X156651247Y-81027255D01*
X156668794Y-81075464D01*
X156713223Y-81101116D01*
X156763747Y-81092207D01*
X156796724Y-81052907D01*
X156801247Y-81027255D01*
X156801247Y-80911779D01*
X157028514Y-80911779D01*
X157041648Y-80924912D01*
X157079819Y-81039425D01*
X157079819Y-81110323D01*
X157041648Y-81224835D01*
X156967534Y-81298948D01*
X156890547Y-81337442D01*
X156717013Y-81380826D01*
X156592624Y-81380826D01*
X156419090Y-81337442D01*
X156342103Y-81298949D01*
X156267990Y-81224836D01*
X156229819Y-81110322D01*
X156229819Y-80997341D01*
X156269520Y-80917939D01*
X156275385Y-80866973D01*
X156247119Y-80824160D01*
X156197944Y-80809533D01*
X156150873Y-80829936D01*
X156135356Y-80850857D01*
X156087737Y-80946095D01*
X156087224Y-80950548D01*
X156084342Y-80953984D01*
X156079819Y-80979636D01*
X156079819Y-81122493D01*
X155936962Y-81122493D01*
X155936962Y-80395183D01*
X156080958Y-80395183D01*
X156084314Y-80414216D01*
X156084228Y-80433544D01*
X156088662Y-80438877D01*
X156089867Y-80445707D01*
X156104673Y-80458131D01*
X156117030Y-80472991D01*
X156123853Y-80474225D01*
X156129167Y-80478684D01*
X156154819Y-80483207D01*
X157154819Y-80483207D01*
X157203028Y-80465660D01*
X157228680Y-80421231D01*
X157219771Y-80370707D01*
X157180471Y-80337730D01*
X157154819Y-80333207D01*
X156437236Y-80333207D01*
X157192030Y-79901897D01*
X157196511Y-79896603D01*
X157203028Y-79894232D01*
X157212691Y-79877494D01*
X157225181Y-79862744D01*
X157225211Y-79855809D01*
X157228680Y-79849803D01*
X157225323Y-79830769D01*
X157225410Y-79811442D01*
X157220975Y-79806108D01*
X157219771Y-79799279D01*
X157204964Y-79786854D01*
X157192608Y-79771995D01*
X157185784Y-79770760D01*
X157180471Y-79766302D01*
X157154819Y-79761779D01*
X156154819Y-79761779D01*
X156106610Y-79779326D01*
X156080958Y-79823755D01*
X156089867Y-79874279D01*
X156129167Y-79907256D01*
X156154819Y-79911779D01*
X156872402Y-79911779D01*
X156117609Y-80343089D01*
X156113127Y-80348381D01*
X156106610Y-80350754D01*
X156096945Y-80367493D01*
X156084457Y-80382242D01*
X156084426Y-80389176D01*
X156080958Y-80395183D01*
X155936962Y-80395183D01*
X155936962Y-79360588D01*
X156079819Y-79360588D01*
X156086482Y-79378896D01*
X156089867Y-79398088D01*
X156095051Y-79402438D01*
X156097366Y-79408797D01*
X156114239Y-79418539D01*
X156129167Y-79431065D01*
X156138909Y-79432782D01*
X156141795Y-79434449D01*
X156145077Y-79433870D01*
X156154819Y-79435588D01*
X157154819Y-79435588D01*
X157173127Y-79428924D01*
X157192319Y-79425540D01*
X157196669Y-79420355D01*
X157203028Y-79418041D01*
X157212770Y-79401167D01*
X157225296Y-79386240D01*
X157227013Y-79376497D01*
X157228680Y-79373612D01*
X157228101Y-79370329D01*
X157229819Y-79360588D01*
X157229819Y-79122493D01*
X157229259Y-79120955D01*
X157225970Y-79098775D01*
X157178351Y-78955919D01*
X157175564Y-78952408D01*
X157175174Y-78947940D01*
X157160233Y-78926603D01*
X157064994Y-78831365D01*
X157063512Y-78830674D01*
X157045502Y-78817316D01*
X156950264Y-78769697D01*
X156946735Y-78769290D01*
X156934913Y-78764018D01*
X156744437Y-78716399D01*
X156740988Y-78716759D01*
X156726247Y-78714160D01*
X156583390Y-78714160D01*
X156580132Y-78715345D01*
X156565200Y-78716399D01*
X156374724Y-78764018D01*
X156371779Y-78766006D01*
X156359373Y-78769697D01*
X156264135Y-78817316D01*
X156263011Y-78818502D01*
X156244643Y-78831365D01*
X156149405Y-78926603D01*
X156147510Y-78930666D01*
X156143689Y-78933014D01*
X156131287Y-78955919D01*
X156083668Y-79098776D01*
X156083712Y-79100410D01*
X156079819Y-79122493D01*
X156079819Y-79360588D01*
X155936962Y-79360588D01*
X155936962Y-78571303D01*
X157372676Y-78571303D01*
X157372676Y-81673683D01*
G37*
G36*
X158973617Y-84380692D02*
G01*
X159045561Y-84452635D01*
X159079819Y-84521151D01*
X159079819Y-84676217D01*
X159045561Y-84744732D01*
X158973617Y-84816675D01*
X158812251Y-84857017D01*
X158497386Y-84857017D01*
X158336019Y-84816675D01*
X158264077Y-84744733D01*
X158229819Y-84676217D01*
X158229819Y-84521151D01*
X158264077Y-84452635D01*
X158336019Y-84380692D01*
X158497386Y-84340351D01*
X158812251Y-84340351D01*
X158973617Y-84380692D01*
G37*
G36*
X158491344Y-80755561D02*
G01*
X158521751Y-80785968D01*
X158556009Y-80854484D01*
X158556009Y-81095112D01*
X158229819Y-81095112D01*
X158229819Y-80854484D01*
X158264077Y-80785968D01*
X158294484Y-80755561D01*
X158363000Y-80721303D01*
X158422828Y-80721303D01*
X158491344Y-80755561D01*
G37*
G36*
X159015153Y-80707942D02*
G01*
X159045561Y-80738349D01*
X159079819Y-80806865D01*
X159079819Y-81095112D01*
X158706009Y-81095112D01*
X158706009Y-80848949D01*
X158744180Y-80734435D01*
X158770674Y-80707942D01*
X158839190Y-80673684D01*
X158946637Y-80673684D01*
X159015153Y-80707942D01*
G37*
G36*
X159372676Y-85578445D02*
G01*
X157936962Y-85578445D01*
X157936962Y-85347564D01*
X158080958Y-85347564D01*
X158089867Y-85398088D01*
X158129167Y-85431065D01*
X158154819Y-85435588D01*
X159154819Y-85435588D01*
X159203028Y-85418041D01*
X159228680Y-85373612D01*
X159219771Y-85323088D01*
X159180471Y-85290111D01*
X159154819Y-85285588D01*
X158154819Y-85285588D01*
X158106610Y-85303135D01*
X158080958Y-85347564D01*
X157936962Y-85347564D01*
X157936962Y-84693922D01*
X158079819Y-84693922D01*
X158081352Y-84698135D01*
X158080311Y-84702496D01*
X158087737Y-84727463D01*
X158135356Y-84822701D01*
X158136545Y-84823826D01*
X158149405Y-84842193D01*
X158244643Y-84937431D01*
X158251350Y-84940558D01*
X158255697Y-84946549D01*
X158279486Y-84957159D01*
X158469962Y-85004778D01*
X158473410Y-85004417D01*
X158488152Y-85007017D01*
X158821485Y-85007017D01*
X158824742Y-85005831D01*
X158839675Y-85004778D01*
X159030151Y-84957159D01*
X159036283Y-84953016D01*
X159043657Y-84952372D01*
X159064994Y-84937431D01*
X159160233Y-84842193D01*
X159160924Y-84840710D01*
X159174282Y-84822701D01*
X159221901Y-84727463D01*
X159222413Y-84723009D01*
X159225296Y-84719574D01*
X159229819Y-84693922D01*
X159229819Y-84503446D01*
X159228285Y-84499232D01*
X159229327Y-84494871D01*
X159221901Y-84469905D01*
X159174282Y-84374667D01*
X159173095Y-84373543D01*
X159160233Y-84355175D01*
X159064994Y-84259937D01*
X159058286Y-84256809D01*
X159053940Y-84250819D01*
X159030151Y-84240209D01*
X158839675Y-84192590D01*
X158836226Y-84192950D01*
X158821485Y-84190351D01*
X158488152Y-84190351D01*
X158484894Y-84191536D01*
X158469962Y-84192590D01*
X158279486Y-84240209D01*
X158273353Y-84244350D01*
X158265980Y-84244996D01*
X158244643Y-84259937D01*
X158149405Y-84355175D01*
X158148714Y-84356656D01*
X158135356Y-84374667D01*
X158087737Y-84469905D01*
X158087224Y-84474358D01*
X158084342Y-84477794D01*
X158079819Y-84503446D01*
X158079819Y-84693922D01*
X157936962Y-84693922D01*
X157936962Y-83741541D01*
X158079819Y-83741541D01*
X158081352Y-83745754D01*
X158080311Y-83750115D01*
X158087737Y-83775082D01*
X158135356Y-83870320D01*
X158136545Y-83871445D01*
X158149405Y-83889812D01*
X158197024Y-83937431D01*
X158243520Y-83959112D01*
X158293075Y-83945835D01*
X158322501Y-83903809D01*
X158318030Y-83852702D01*
X158303090Y-83831365D01*
X158264077Y-83792352D01*
X158229819Y-83723836D01*
X158229819Y-83521151D01*
X158264077Y-83452635D01*
X158294484Y-83422228D01*
X158363000Y-83387970D01*
X158428363Y-83387970D01*
X158542876Y-83426141D01*
X159101786Y-83985050D01*
X159122239Y-83994587D01*
X159141795Y-84005878D01*
X159145175Y-84005281D01*
X159148283Y-84006731D01*
X159170085Y-84000889D01*
X159192319Y-83996969D01*
X159194523Y-83994341D01*
X159197837Y-83993454D01*
X159210785Y-83974962D01*
X159225296Y-83957669D01*
X159226104Y-83953084D01*
X159227264Y-83951428D01*
X159226976Y-83948139D01*
X159229819Y-83932017D01*
X159229819Y-83312970D01*
X159212272Y-83264761D01*
X159167843Y-83239109D01*
X159117319Y-83248018D01*
X159084342Y-83287318D01*
X159079819Y-83312970D01*
X159079819Y-83750951D01*
X158636423Y-83307556D01*
X158632359Y-83305661D01*
X158630012Y-83301840D01*
X158607107Y-83289438D01*
X158464250Y-83241819D01*
X158462615Y-83241863D01*
X158440533Y-83237970D01*
X158345295Y-83237970D01*
X158341081Y-83239503D01*
X158336720Y-83238462D01*
X158311754Y-83245888D01*
X158216516Y-83293507D01*
X158215390Y-83294696D01*
X158197024Y-83307556D01*
X158149405Y-83355175D01*
X158148714Y-83356656D01*
X158135356Y-83374667D01*
X158087737Y-83469905D01*
X158087224Y-83474358D01*
X158084342Y-83477794D01*
X158079819Y-83503446D01*
X158079819Y-83741541D01*
X157936962Y-83741541D01*
X157936962Y-82641476D01*
X158079974Y-82641476D01*
X158086087Y-82662367D01*
X158089867Y-82683803D01*
X158093170Y-82686575D01*
X158094382Y-82690714D01*
X158113216Y-82708707D01*
X158249894Y-82799825D01*
X158331275Y-82881206D01*
X158373451Y-82965558D01*
X158410705Y-83000830D01*
X158461915Y-83003905D01*
X158503121Y-82973341D01*
X158515041Y-82923442D01*
X158507615Y-82898476D01*
X158459996Y-82803238D01*
X158458809Y-82802114D01*
X158445947Y-82783746D01*
X158383504Y-82721303D01*
X159079819Y-82721303D01*
X159079819Y-82932017D01*
X159097366Y-82980226D01*
X159141795Y-83005878D01*
X159192319Y-82996969D01*
X159225296Y-82957669D01*
X159229819Y-82932017D01*
X159229819Y-82360589D01*
X159212272Y-82312380D01*
X159167843Y-82286728D01*
X159117319Y-82295637D01*
X159084342Y-82334937D01*
X159079819Y-82360589D01*
X159079819Y-82571303D01*
X158154819Y-82571303D01*
X158150765Y-82572778D01*
X158146576Y-82571758D01*
X158127063Y-82581405D01*
X158106610Y-82588850D01*
X158104454Y-82592584D01*
X158100587Y-82594496D01*
X158091840Y-82614430D01*
X158080958Y-82633279D01*
X158081706Y-82637526D01*
X158079974Y-82641476D01*
X157936962Y-82641476D01*
X157936962Y-81170112D01*
X158079819Y-81170112D01*
X158086482Y-81188420D01*
X158089867Y-81207612D01*
X158095051Y-81211962D01*
X158097366Y-81218321D01*
X158114239Y-81228063D01*
X158129167Y-81240589D01*
X158138909Y-81242306D01*
X158141795Y-81243973D01*
X158145077Y-81243394D01*
X158154819Y-81245112D01*
X159154819Y-81245112D01*
X159173127Y-81238448D01*
X159192319Y-81235064D01*
X159196669Y-81229879D01*
X159203028Y-81227565D01*
X159212770Y-81210691D01*
X159225296Y-81195764D01*
X159227013Y-81186021D01*
X159228680Y-81183136D01*
X159228101Y-81179853D01*
X159229819Y-81170112D01*
X159229819Y-80789160D01*
X159228285Y-80784946D01*
X159229327Y-80780585D01*
X159221901Y-80755619D01*
X159174282Y-80660381D01*
X159173094Y-80659256D01*
X159160232Y-80640888D01*
X159112612Y-80593269D01*
X159111129Y-80592577D01*
X159093121Y-80579221D01*
X158997883Y-80531602D01*
X158993429Y-80531089D01*
X158989994Y-80528207D01*
X158964342Y-80523684D01*
X158821485Y-80523684D01*
X158817271Y-80525217D01*
X158812910Y-80524176D01*
X158787944Y-80531602D01*
X158692706Y-80579221D01*
X158691580Y-80580410D01*
X158673214Y-80593270D01*
X158625595Y-80640889D01*
X158623700Y-80644952D01*
X158619879Y-80647300D01*
X158611215Y-80663300D01*
X158588804Y-80640889D01*
X158587322Y-80640198D01*
X158569312Y-80626840D01*
X158474074Y-80579221D01*
X158469620Y-80578708D01*
X158466185Y-80575826D01*
X158440533Y-80571303D01*
X158345295Y-80571303D01*
X158341081Y-80572836D01*
X158336720Y-80571795D01*
X158311754Y-80579221D01*
X158216516Y-80626840D01*
X158215390Y-80628029D01*
X158197024Y-80640889D01*
X158149405Y-80688508D01*
X158148714Y-80689989D01*
X158135356Y-80708000D01*
X158087737Y-80803238D01*
X158087224Y-80807691D01*
X158084342Y-80811127D01*
X158079819Y-80836779D01*
X158079819Y-81170112D01*
X157936962Y-81170112D01*
X157936962Y-80312969D01*
X158079819Y-80312969D01*
X158097366Y-80361178D01*
X158141795Y-80386830D01*
X158192319Y-80377921D01*
X158225296Y-80338621D01*
X158229819Y-80312969D01*
X158229819Y-80102255D01*
X159154819Y-80102255D01*
X159203028Y-80084708D01*
X159228680Y-80040279D01*
X159219771Y-79989755D01*
X159180471Y-79956778D01*
X159154819Y-79952255D01*
X158229819Y-79952255D01*
X158229819Y-79741541D01*
X158212272Y-79693332D01*
X158167843Y-79667680D01*
X158117319Y-79676589D01*
X158084342Y-79715889D01*
X158079819Y-79741541D01*
X158079819Y-80312969D01*
X157936962Y-80312969D01*
X157936962Y-79395183D01*
X158080958Y-79395183D01*
X158084314Y-79414216D01*
X158084228Y-79433544D01*
X158088662Y-79438877D01*
X158089867Y-79445707D01*
X158104673Y-79458131D01*
X158117030Y-79472991D01*
X158123853Y-79474225D01*
X158129167Y-79478684D01*
X158154819Y-79483207D01*
X159154819Y-79483207D01*
X159203028Y-79465660D01*
X159228680Y-79421231D01*
X159219771Y-79370707D01*
X159180471Y-79337730D01*
X159154819Y-79333207D01*
X158437236Y-79333207D01*
X159192030Y-78901897D01*
X159196511Y-78896603D01*
X159203028Y-78894232D01*
X159212691Y-78877494D01*
X159225181Y-78862744D01*
X159225211Y-78855809D01*
X159228680Y-78849803D01*
X159225323Y-78830769D01*
X159225410Y-78811442D01*
X159220975Y-78806108D01*
X159219771Y-78799279D01*
X159204964Y-78786854D01*
X159192608Y-78771995D01*
X159185784Y-78770760D01*
X159180471Y-78766302D01*
X159154819Y-78761779D01*
X158154819Y-78761779D01*
X158106610Y-78779326D01*
X158080958Y-78823755D01*
X158089867Y-78874279D01*
X158129167Y-78907256D01*
X158154819Y-78911779D01*
X158872402Y-78911779D01*
X158117609Y-79343089D01*
X158113127Y-79348381D01*
X158106610Y-79350754D01*
X158096945Y-79367493D01*
X158084457Y-79382242D01*
X158084426Y-79389176D01*
X158080958Y-79395183D01*
X157936962Y-79395183D01*
X157936962Y-78618922D01*
X159372676Y-78618922D01*
X159372676Y-85578445D01*
G37*
X152333333Y-108554819D02*
X151857143Y-108554819D01*
X151857143Y-108554819D02*
X151857143Y-107554819D01*
X153190476Y-108554819D02*
X152619048Y-108554819D01*
X152904762Y-108554819D02*
X152904762Y-107554819D01*
X152904762Y-107554819D02*
X152809524Y-107697676D01*
X152809524Y-107697676D02*
X152714286Y-107792914D01*
X152714286Y-107792914D02*
X152619048Y-107840533D01*
X143104580Y-95004166D02*
X143152200Y-95051785D01*
X143152200Y-95051785D02*
X143199819Y-95194642D01*
X143199819Y-95194642D02*
X143199819Y-95289880D01*
X143199819Y-95289880D02*
X143152200Y-95432737D01*
X143152200Y-95432737D02*
X143056961Y-95527975D01*
X143056961Y-95527975D02*
X142961723Y-95575594D01*
X142961723Y-95575594D02*
X142771247Y-95623213D01*
X142771247Y-95623213D02*
X142628390Y-95623213D01*
X142628390Y-95623213D02*
X142437914Y-95575594D01*
X142437914Y-95575594D02*
X142342676Y-95527975D01*
X142342676Y-95527975D02*
X142247438Y-95432737D01*
X142247438Y-95432737D02*
X142199819Y-95289880D01*
X142199819Y-95289880D02*
X142199819Y-95194642D01*
X142199819Y-95194642D02*
X142247438Y-95051785D01*
X142247438Y-95051785D02*
X142295057Y-95004166D01*
X142295057Y-94623213D02*
X142247438Y-94575594D01*
X142247438Y-94575594D02*
X142199819Y-94480356D01*
X142199819Y-94480356D02*
X142199819Y-94242261D01*
X142199819Y-94242261D02*
X142247438Y-94147023D01*
X142247438Y-94147023D02*
X142295057Y-94099404D01*
X142295057Y-94099404D02*
X142390295Y-94051785D01*
X142390295Y-94051785D02*
X142485533Y-94051785D01*
X142485533Y-94051785D02*
X142628390Y-94099404D01*
X142628390Y-94099404D02*
X143199819Y-94670832D01*
X143199819Y-94670832D02*
X143199819Y-94051785D01*
X153236905Y-86034819D02*
X153236905Y-85034819D01*
X153236905Y-85034819D02*
X153475000Y-85034819D01*
X153475000Y-85034819D02*
X153617857Y-85082438D01*
X153617857Y-85082438D02*
X153713095Y-85177676D01*
X153713095Y-85177676D02*
X153760714Y-85272914D01*
X153760714Y-85272914D02*
X153808333Y-85463390D01*
X153808333Y-85463390D02*
X153808333Y-85606247D01*
X153808333Y-85606247D02*
X153760714Y-85796723D01*
X153760714Y-85796723D02*
X153713095Y-85891961D01*
X153713095Y-85891961D02*
X153617857Y-85987200D01*
X153617857Y-85987200D02*
X153475000Y-86034819D01*
X153475000Y-86034819D02*
X153236905Y-86034819D01*
X154760714Y-86034819D02*
X154189286Y-86034819D01*
X154475000Y-86034819D02*
X154475000Y-85034819D01*
X154475000Y-85034819D02*
X154379762Y-85177676D01*
X154379762Y-85177676D02*
X154284524Y-85272914D01*
X154284524Y-85272914D02*
X154189286Y-85320533D01*
X150153333Y-86034819D02*
X149820000Y-85558628D01*
X149581905Y-86034819D02*
X149581905Y-85034819D01*
X149581905Y-85034819D02*
X149962857Y-85034819D01*
X149962857Y-85034819D02*
X150058095Y-85082438D01*
X150058095Y-85082438D02*
X150105714Y-85130057D01*
X150105714Y-85130057D02*
X150153333Y-85225295D01*
X150153333Y-85225295D02*
X150153333Y-85368152D01*
X150153333Y-85368152D02*
X150105714Y-85463390D01*
X150105714Y-85463390D02*
X150058095Y-85511009D01*
X150058095Y-85511009D02*
X149962857Y-85558628D01*
X149962857Y-85558628D02*
X149581905Y-85558628D01*
X150486667Y-85034819D02*
X151105714Y-85034819D01*
X151105714Y-85034819D02*
X150772381Y-85415771D01*
X150772381Y-85415771D02*
X150915238Y-85415771D01*
X150915238Y-85415771D02*
X151010476Y-85463390D01*
X151010476Y-85463390D02*
X151058095Y-85511009D01*
X151058095Y-85511009D02*
X151105714Y-85606247D01*
X151105714Y-85606247D02*
X151105714Y-85844342D01*
X151105714Y-85844342D02*
X151058095Y-85939580D01*
X151058095Y-85939580D02*
X151010476Y-85987200D01*
X151010476Y-85987200D02*
X150915238Y-86034819D01*
X150915238Y-86034819D02*
X150629524Y-86034819D01*
X150629524Y-86034819D02*
X150534286Y-85987200D01*
X150534286Y-85987200D02*
X150486667Y-85939580D01*
X144920833Y-92504819D02*
X144587500Y-92028628D01*
X144349405Y-92504819D02*
X144349405Y-91504819D01*
X144349405Y-91504819D02*
X144730357Y-91504819D01*
X144730357Y-91504819D02*
X144825595Y-91552438D01*
X144825595Y-91552438D02*
X144873214Y-91600057D01*
X144873214Y-91600057D02*
X144920833Y-91695295D01*
X144920833Y-91695295D02*
X144920833Y-91838152D01*
X144920833Y-91838152D02*
X144873214Y-91933390D01*
X144873214Y-91933390D02*
X144825595Y-91981009D01*
X144825595Y-91981009D02*
X144730357Y-92028628D01*
X144730357Y-92028628D02*
X144349405Y-92028628D01*
X145301786Y-91600057D02*
X145349405Y-91552438D01*
X145349405Y-91552438D02*
X145444643Y-91504819D01*
X145444643Y-91504819D02*
X145682738Y-91504819D01*
X145682738Y-91504819D02*
X145777976Y-91552438D01*
X145777976Y-91552438D02*
X145825595Y-91600057D01*
X145825595Y-91600057D02*
X145873214Y-91695295D01*
X145873214Y-91695295D02*
X145873214Y-91790533D01*
X145873214Y-91790533D02*
X145825595Y-91933390D01*
X145825595Y-91933390D02*
X145254167Y-92504819D01*
X145254167Y-92504819D02*
X145873214Y-92504819D01*
X159670833Y-94309580D02*
X159623214Y-94357200D01*
X159623214Y-94357200D02*
X159480357Y-94404819D01*
X159480357Y-94404819D02*
X159385119Y-94404819D01*
X159385119Y-94404819D02*
X159242262Y-94357200D01*
X159242262Y-94357200D02*
X159147024Y-94261961D01*
X159147024Y-94261961D02*
X159099405Y-94166723D01*
X159099405Y-94166723D02*
X159051786Y-93976247D01*
X159051786Y-93976247D02*
X159051786Y-93833390D01*
X159051786Y-93833390D02*
X159099405Y-93642914D01*
X159099405Y-93642914D02*
X159147024Y-93547676D01*
X159147024Y-93547676D02*
X159242262Y-93452438D01*
X159242262Y-93452438D02*
X159385119Y-93404819D01*
X159385119Y-93404819D02*
X159480357Y-93404819D01*
X159480357Y-93404819D02*
X159623214Y-93452438D01*
X159623214Y-93452438D02*
X159670833Y-93500057D01*
X160623214Y-94404819D02*
X160051786Y-94404819D01*
X160337500Y-94404819D02*
X160337500Y-93404819D01*
X160337500Y-93404819D02*
X160242262Y-93547676D01*
X160242262Y-93547676D02*
X160147024Y-93642914D01*
X160147024Y-93642914D02*
X160051786Y-93690533D01*
X160859819Y-91704166D02*
X160383628Y-92037499D01*
X160859819Y-92275594D02*
X159859819Y-92275594D01*
X159859819Y-92275594D02*
X159859819Y-91894642D01*
X159859819Y-91894642D02*
X159907438Y-91799404D01*
X159907438Y-91799404D02*
X159955057Y-91751785D01*
X159955057Y-91751785D02*
X160050295Y-91704166D01*
X160050295Y-91704166D02*
X160193152Y-91704166D01*
X160193152Y-91704166D02*
X160288390Y-91751785D01*
X160288390Y-91751785D02*
X160336009Y-91799404D01*
X160336009Y-91799404D02*
X160383628Y-91894642D01*
X160383628Y-91894642D02*
X160383628Y-92275594D01*
X160859819Y-90751785D02*
X160859819Y-91323213D01*
X160859819Y-91037499D02*
X159859819Y-91037499D01*
X159859819Y-91037499D02*
X160002676Y-91132737D01*
X160002676Y-91132737D02*
X160097914Y-91227975D01*
X160097914Y-91227975D02*
X160145533Y-91323213D01*
D11*
%TO.C,J5*%
X134560000Y-79910000D02*
X135890000Y-79910000D01*
X134560000Y-81240000D02*
X134560000Y-79910000D01*
X134560000Y-82510000D02*
X134560000Y-105430000D01*
X134560000Y-82510000D02*
X137160000Y-82510000D01*
X134560000Y-105430000D02*
X139760000Y-105430000D01*
X137160000Y-79910000D02*
X139760000Y-79910000D01*
X137160000Y-82510000D02*
X137160000Y-79910000D01*
X139760000Y-79910000D02*
X139760000Y-105430000D01*
%TO.C,L1*%
X143680000Y-108100000D02*
X145130000Y-108100000D01*
X145130000Y-105080000D02*
X145130000Y-111120000D01*
X145130000Y-111120000D02*
X159870000Y-111120000D01*
X159870000Y-105080000D02*
X145130000Y-105080000D01*
X159870000Y-111120000D02*
X159870000Y-105080000D01*
X161320000Y-108100000D02*
X159870000Y-108100000D01*
%TO.C,J6*%
X165040000Y-79910000D02*
X166370000Y-79910000D01*
X165040000Y-81240000D02*
X165040000Y-79910000D01*
X165040000Y-82510000D02*
X165040000Y-105430000D01*
X165040000Y-82510000D02*
X167640000Y-82510000D01*
X165040000Y-105430000D02*
X170240000Y-105430000D01*
X167640000Y-79910000D02*
X170240000Y-79910000D01*
X167640000Y-82510000D02*
X167640000Y-79910000D01*
X170240000Y-79910000D02*
X170240000Y-105430000D01*
D12*
%TO.C,J2*%
X151400000Y-78200000D02*
X151400000Y-72900000D01*
X151400000Y-72900000D02*
X141400000Y-72900000D01*
X142500000Y-78200000D02*
X151400000Y-78200000D01*
X141400000Y-72900000D02*
X141400000Y-76800000D01*
X140200000Y-75900000D02*
X140200000Y-75900000D01*
X140100000Y-75900000D02*
X140100000Y-75900000D01*
X140100000Y-75900000D02*
G75*
G03*
X140200000Y-75900000I50000J0D01*
G01*
X140200000Y-75900000D02*
G75*
G03*
X140100000Y-75900000I-50000J0D01*
G01*
D11*
%TO.C,C2*%
X143665000Y-94983767D02*
X143665000Y-94691233D01*
X144685000Y-94983767D02*
X144685000Y-94691233D01*
D13*
%TO.C,IC1*%
X154315000Y-94635000D02*
X153265000Y-94635000D01*
X152915000Y-94610000D02*
X152065000Y-94610000D01*
X152915000Y-91710000D02*
X152915000Y-94610000D01*
X152065000Y-94610000D02*
X152065000Y-91710000D01*
X152065000Y-91710000D02*
X152915000Y-91710000D01*
D11*
%TO.C,D1*%
X155635000Y-84885000D02*
X155635000Y-83415000D01*
X155635000Y-83415000D02*
X153175000Y-83415000D01*
X153175000Y-84885000D02*
X155635000Y-84885000D01*
D13*
%TO.C,D2*%
X159600000Y-97930000D02*
X159600000Y-102970000D01*
X162200000Y-102970000D02*
X162200000Y-97675000D01*
D11*
%TO.C,R3*%
X150574724Y-84672500D02*
X150065276Y-84672500D01*
X150574724Y-83627500D02*
X150065276Y-83627500D01*
%TO.C,J3*%
X147350000Y-89290000D02*
X148680000Y-89290000D01*
X147350000Y-90620000D02*
X147350000Y-89290000D01*
X147350000Y-91890000D02*
X147350000Y-97030000D01*
X147350000Y-91890000D02*
X150010000Y-91890000D01*
X147350000Y-97030000D02*
X150010000Y-97030000D01*
X150010000Y-91890000D02*
X150010000Y-97030000D01*
D12*
%TO.C,J1*%
X164700000Y-78200000D02*
X164700000Y-72900000D01*
X164700000Y-72900000D02*
X154700000Y-72900000D01*
X155800000Y-78200000D02*
X164700000Y-78200000D01*
X154700000Y-72900000D02*
X154700000Y-76800000D01*
X153500000Y-75900000D02*
X153500000Y-75900000D01*
X153400000Y-75900000D02*
X153400000Y-75900000D01*
X153400000Y-75900000D02*
G75*
G03*
X153500000Y-75900000I50000J0D01*
G01*
X153500000Y-75900000D02*
G75*
G03*
X153400000Y-75900000I-50000J0D01*
G01*
D11*
%TO.C,R2*%
X145342224Y-91142500D02*
X144832776Y-91142500D01*
X145342224Y-90097500D02*
X144832776Y-90097500D01*
%TO.C,C1*%
X159983767Y-95810000D02*
X159691233Y-95810000D01*
X159983767Y-94790000D02*
X159691233Y-94790000D01*
%TO.C,R1*%
X159497500Y-91282776D02*
X159497500Y-91792224D01*
X158452500Y-91282776D02*
X158452500Y-91792224D01*
%TO.C,J4*%
X157630000Y-97030000D02*
X156300000Y-97030000D01*
X157630000Y-95700000D02*
X157630000Y-97030000D01*
X157630000Y-94430000D02*
X157630000Y-89290000D01*
X157630000Y-94430000D02*
X154970000Y-94430000D01*
X157630000Y-89290000D02*
X154970000Y-89290000D01*
X154970000Y-94430000D02*
X154970000Y-89290000D01*
%TD*%
%LPC*%
D14*
%TO.C,J5*%
X135890000Y-81240000D03*
D15*
X138430000Y-81240000D03*
X135890000Y-83780000D03*
X138430000Y-83780000D03*
X135890000Y-86320000D03*
X138430000Y-86320000D03*
X135890000Y-88860000D03*
X138430000Y-88860000D03*
X135890000Y-91400000D03*
X138430000Y-91400000D03*
X135890000Y-93940000D03*
X138430000Y-93940000D03*
X135890000Y-96480000D03*
X138430000Y-96480000D03*
X135890000Y-99020000D03*
X138430000Y-99020000D03*
X135890000Y-101560000D03*
X138430000Y-101560000D03*
X135890000Y-104100000D03*
X138430000Y-104100000D03*
%TD*%
D16*
%TO.C,H2*%
X133450000Y-109220000D03*
X134152944Y-107522944D03*
X134152944Y-110917056D03*
X135850000Y-106820000D03*
D17*
X135850000Y-109220000D03*
D16*
X135850000Y-111620000D03*
X137547056Y-107522944D03*
X137547056Y-110917056D03*
X138250000Y-109220000D03*
%TD*%
D18*
%TO.C,L1*%
X142340000Y-108100000D03*
D19*
X162660000Y-108100000D03*
%TD*%
D16*
%TO.C,H1*%
X133450000Y-76120000D03*
X134152944Y-74422944D03*
X134152944Y-77817056D03*
X135850000Y-73720000D03*
D17*
X135850000Y-76120000D03*
D16*
X135850000Y-78520000D03*
X137547056Y-74422944D03*
X137547056Y-77817056D03*
X138250000Y-76120000D03*
%TD*%
D14*
%TO.C,J6*%
X166370000Y-81240000D03*
D15*
X168910000Y-81240000D03*
X166370000Y-83780000D03*
X168910000Y-83780000D03*
X166370000Y-86320000D03*
X168910000Y-86320000D03*
X166370000Y-88860000D03*
X168910000Y-88860000D03*
X166370000Y-91400000D03*
X168910000Y-91400000D03*
X166370000Y-93940000D03*
X168910000Y-93940000D03*
X166370000Y-96480000D03*
X168910000Y-96480000D03*
X166370000Y-99020000D03*
X168910000Y-99020000D03*
X166370000Y-101560000D03*
X168910000Y-101560000D03*
X166370000Y-104100000D03*
X168910000Y-104100000D03*
%TD*%
D20*
%TO.C,J2*%
X141900000Y-77600000D03*
D21*
X143400000Y-75900000D03*
X145400000Y-75900000D03*
X147400000Y-75900000D03*
X149400000Y-75900000D03*
%TD*%
D22*
%TO.C,C2*%
X144175000Y-95700000D03*
X144175000Y-93975000D03*
%TD*%
D23*
%TO.C,IC1*%
X153790000Y-94110000D03*
X153790000Y-93160000D03*
X153790000Y-92210000D03*
X151190000Y-92210000D03*
X151190000Y-94110000D03*
%TD*%
D24*
%TO.C,D1*%
X154850000Y-84150000D03*
X153100000Y-84150000D03*
%TD*%
D25*
%TO.C,D2*%
X160900000Y-98400000D03*
X160900000Y-102500000D03*
%TD*%
D16*
%TO.C,H3*%
X166550000Y-76120000D03*
X167252944Y-74422944D03*
X167252944Y-77817056D03*
X168950000Y-73720000D03*
D17*
X168950000Y-76120000D03*
D16*
X168950000Y-78520000D03*
X170647056Y-74422944D03*
X170647056Y-77817056D03*
X171350000Y-76120000D03*
%TD*%
D26*
%TO.C,R3*%
X151232500Y-84150000D03*
X149407500Y-84150000D03*
%TD*%
D14*
%TO.C,J3*%
X148680000Y-90620000D03*
D15*
X148680000Y-93160000D03*
X148680000Y-95700000D03*
%TD*%
D20*
%TO.C,J1*%
X155200000Y-77600000D03*
D21*
X156700000Y-75900000D03*
X158700000Y-75900000D03*
X160700000Y-75900000D03*
X162700000Y-75900000D03*
%TD*%
D16*
%TO.C,H4*%
X166550000Y-109220000D03*
X167252944Y-107522944D03*
X167252944Y-110917056D03*
X168950000Y-106820000D03*
D17*
X168950000Y-109220000D03*
D16*
X168950000Y-111620000D03*
X170647056Y-107522944D03*
X170647056Y-110917056D03*
X171350000Y-109220000D03*
%TD*%
D26*
%TO.C,R2*%
X146000000Y-90620000D03*
X144175000Y-90620000D03*
%TD*%
D27*
%TO.C,C1*%
X160700000Y-95300000D03*
X158975000Y-95300000D03*
%TD*%
D28*
%TO.C,R1*%
X158975000Y-90625000D03*
X158975000Y-92450000D03*
%TD*%
D14*
%TO.C,J4*%
X156300000Y-95700000D03*
D15*
X156300000Y-93160000D03*
X156300000Y-90620000D03*
%TD*%
%LPD*%
M02*
