%TF.GenerationSoftware,KiCad,Pcbnew,7.0.9*%
%TF.CreationDate,2023-12-29T11:45:24+09:00*%
%TF.ProjectId,CAT4238_Unit,43415434-3233-4385-9f55-6e69742e6b69,rev?*%
%TF.SameCoordinates,Original*%
%TF.FileFunction,Soldermask,Bot*%
%TF.FilePolarity,Negative*%
%FSLAX46Y46*%
G04 Gerber Fmt 4.6, Leading zero omitted, Abs format (unit mm)*
G04 Created by KiCad (PCBNEW 7.0.9) date 2023-12-29 11:45:24*
%MOMM*%
%LPD*%
G01*
G04 APERTURE LIST*
%ADD10C,0.150000*%
%ADD11R,1.700000X1.700000*%
%ADD12O,1.700000X1.700000*%
%ADD13C,0.800000*%
%ADD14C,6.400000*%
%ADD15C,2.200000*%
%ADD16O,2.200000X2.200000*%
%ADD17C,1.200000*%
%ADD18C,1.300000*%
G04 APERTURE END LIST*
D10*
G36*
X151855572Y-111492648D02*
G01*
X151885979Y-111523055D01*
X151920237Y-111591571D01*
X151920237Y-111746637D01*
X151885978Y-111815153D01*
X151855571Y-111845561D01*
X151787056Y-111879819D01*
X151631990Y-111879819D01*
X151563474Y-111845561D01*
X151533067Y-111815153D01*
X151498809Y-111746637D01*
X151498809Y-111591571D01*
X151533067Y-111523055D01*
X151563474Y-111492648D01*
X151631990Y-111458390D01*
X151787056Y-111458390D01*
X151855572Y-111492648D01*
G37*
G36*
X151855572Y-111064077D02*
G01*
X151885979Y-111094484D01*
X151920237Y-111163000D01*
X151920237Y-111175209D01*
X151885979Y-111243725D01*
X151855572Y-111274132D01*
X151787056Y-111308390D01*
X151631990Y-111308390D01*
X151563474Y-111274132D01*
X151533067Y-111243725D01*
X151498809Y-111175209D01*
X151498809Y-111163000D01*
X151533067Y-111094484D01*
X151563474Y-111064077D01*
X151631990Y-111029819D01*
X151787056Y-111029819D01*
X151855572Y-111064077D01*
G37*
G36*
X156367371Y-111594104D02*
G01*
X156099295Y-111594104D01*
X156233333Y-111191989D01*
X156367371Y-111594104D01*
G37*
G36*
X157689285Y-112172676D02*
G01*
X147016615Y-112172676D01*
X147016615Y-110941795D01*
X147159472Y-110941795D01*
X147168381Y-110992319D01*
X147207681Y-111025296D01*
X147233333Y-111029819D01*
X147444047Y-111029819D01*
X147444047Y-111954819D01*
X147461594Y-112003028D01*
X147506023Y-112028680D01*
X147556547Y-112019771D01*
X147589524Y-111980471D01*
X147594047Y-111954819D01*
X148063094Y-111954819D01*
X148080641Y-112003028D01*
X148125070Y-112028680D01*
X148175594Y-112019771D01*
X148208571Y-111980471D01*
X148213094Y-111954819D01*
X148539285Y-111954819D01*
X148541656Y-111961335D01*
X148540483Y-111968171D01*
X148550222Y-111984868D01*
X148556832Y-112003028D01*
X148562837Y-112006495D01*
X148566332Y-112012487D01*
X148584523Y-112019016D01*
X148601261Y-112028680D01*
X148608092Y-112027475D01*
X148614619Y-112029818D01*
X148632750Y-112023127D01*
X148651785Y-112019771D01*
X148656242Y-112014458D01*
X148662749Y-112012058D01*
X148679403Y-111992029D01*
X149110713Y-111237235D01*
X149110713Y-111954819D01*
X149128260Y-112003028D01*
X149172689Y-112028680D01*
X149223213Y-112019771D01*
X149256190Y-111980471D01*
X149260713Y-111954819D01*
X149260713Y-111764342D01*
X149586904Y-111764342D01*
X149588437Y-111768555D01*
X149587396Y-111772916D01*
X149594822Y-111797883D01*
X149642441Y-111893121D01*
X149643629Y-111894246D01*
X149656489Y-111912612D01*
X149704108Y-111960232D01*
X149705589Y-111960922D01*
X149723601Y-111974282D01*
X149818839Y-112021901D01*
X149823292Y-112022413D01*
X149826728Y-112025296D01*
X149852380Y-112029819D01*
X150042856Y-112029819D01*
X150047069Y-112028285D01*
X150051430Y-112029327D01*
X150076397Y-112021901D01*
X150171635Y-111974282D01*
X150172759Y-111973094D01*
X150191128Y-111960232D01*
X150238746Y-111912613D01*
X150239436Y-111911131D01*
X150252795Y-111893121D01*
X150300414Y-111797883D01*
X150300926Y-111793429D01*
X150303809Y-111789994D01*
X150308332Y-111764342D01*
X151348809Y-111764342D01*
X151350342Y-111768555D01*
X151349301Y-111772916D01*
X151356727Y-111797883D01*
X151404346Y-111893121D01*
X151405534Y-111894246D01*
X151418394Y-111912612D01*
X151466013Y-111960232D01*
X151467494Y-111960922D01*
X151485506Y-111974282D01*
X151580744Y-112021901D01*
X151585197Y-112022413D01*
X151588633Y-112025296D01*
X151614285Y-112029819D01*
X151804761Y-112029819D01*
X151808974Y-112028285D01*
X151813335Y-112029327D01*
X151838302Y-112021901D01*
X151933540Y-111974282D01*
X151934664Y-111973094D01*
X151953033Y-111960232D01*
X152000651Y-111912613D01*
X152001341Y-111911131D01*
X152014700Y-111893121D01*
X152062319Y-111797883D01*
X152062831Y-111793429D01*
X152065714Y-111789994D01*
X152070237Y-111764342D01*
X152301190Y-111764342D01*
X152302723Y-111768555D01*
X152301682Y-111772916D01*
X152309108Y-111797883D01*
X152356727Y-111893121D01*
X152357915Y-111894246D01*
X152370775Y-111912612D01*
X152418394Y-111960232D01*
X152419875Y-111960922D01*
X152437887Y-111974282D01*
X152533125Y-112021901D01*
X152537578Y-112022413D01*
X152541014Y-112025296D01*
X152566666Y-112029819D01*
X152852380Y-112029819D01*
X152856593Y-112028285D01*
X152860954Y-112029327D01*
X152885921Y-112021901D01*
X152981159Y-111974282D01*
X152982283Y-111973094D01*
X153000652Y-111960232D01*
X153048270Y-111912613D01*
X153069951Y-111866116D01*
X153056673Y-111816561D01*
X153014648Y-111787135D01*
X152963540Y-111791607D01*
X152942203Y-111806548D01*
X152903190Y-111845561D01*
X152834675Y-111879819D01*
X152584371Y-111879819D01*
X152515855Y-111845561D01*
X152485448Y-111815153D01*
X152451190Y-111746637D01*
X152451190Y-111543952D01*
X152485448Y-111475436D01*
X152515855Y-111445029D01*
X152584371Y-111410771D01*
X152709523Y-111410771D01*
X152728522Y-111403855D01*
X152748359Y-111399933D01*
X152752109Y-111395270D01*
X152757732Y-111393224D01*
X152767841Y-111375714D01*
X152780516Y-111359959D01*
X152780392Y-111353976D01*
X152783384Y-111348795D01*
X152779872Y-111328881D01*
X152779454Y-111308667D01*
X152775014Y-111301333D01*
X152774475Y-111298271D01*
X152771805Y-111296031D01*
X152765966Y-111286383D01*
X152725847Y-111240533D01*
X153253571Y-111240533D01*
X153254131Y-111242071D01*
X153257420Y-111264250D01*
X153305039Y-111407107D01*
X153307826Y-111410619D01*
X153308217Y-111415086D01*
X153323157Y-111436423D01*
X153766552Y-111879819D01*
X153328571Y-111879819D01*
X153280362Y-111897366D01*
X153254710Y-111941795D01*
X153263619Y-111992319D01*
X153302919Y-112025296D01*
X153328571Y-112029819D01*
X153947618Y-112029819D01*
X153968829Y-112022098D01*
X153990636Y-112016256D01*
X153992604Y-112013444D01*
X153995827Y-112012272D01*
X154007112Y-111992726D01*
X154020063Y-111974231D01*
X154019764Y-111970813D01*
X154021479Y-111967843D01*
X154017559Y-111945616D01*
X154015592Y-111923123D01*
X154012920Y-111919308D01*
X154012570Y-111917319D01*
X154010043Y-111915198D01*
X154000651Y-111901786D01*
X153707327Y-111608461D01*
X154159472Y-111608461D01*
X154168381Y-111658985D01*
X154207681Y-111691962D01*
X154233333Y-111696485D01*
X154301190Y-111696485D01*
X154301190Y-111954819D01*
X154318737Y-112003028D01*
X154363166Y-112028680D01*
X154413690Y-112019771D01*
X154446667Y-111980471D01*
X154451190Y-111954819D01*
X154451190Y-111696485D01*
X154852380Y-111696485D01*
X154857765Y-111694524D01*
X154863381Y-111695674D01*
X154881368Y-111685933D01*
X154900589Y-111678938D01*
X154903454Y-111673974D01*
X154908495Y-111671245D01*
X154916011Y-111652225D01*
X154926241Y-111634509D01*
X154925245Y-111628863D01*
X154927352Y-111623533D01*
X154923531Y-111597767D01*
X154704873Y-110941795D01*
X155064234Y-110941795D01*
X155073143Y-110992319D01*
X155112443Y-111025296D01*
X155138095Y-111029819D01*
X155348809Y-111029819D01*
X155348809Y-111954819D01*
X155366356Y-112003028D01*
X155410785Y-112028680D01*
X155461309Y-112019771D01*
X155494286Y-111980471D01*
X155498809Y-111954819D01*
X155498809Y-111931102D01*
X155828849Y-111931102D01*
X155830250Y-111982386D01*
X155864287Y-112020771D01*
X155915036Y-112028296D01*
X155958748Y-112001441D01*
X155971151Y-111978536D01*
X156049295Y-111744104D01*
X156417371Y-111744104D01*
X156495515Y-111978536D01*
X156527406Y-112018722D01*
X156577667Y-112029008D01*
X156622781Y-112004579D01*
X156641638Y-111956867D01*
X156637817Y-111931102D01*
X156341957Y-111043521D01*
X156777667Y-111043521D01*
X156790944Y-111093075D01*
X156832970Y-111122502D01*
X156884077Y-111118030D01*
X156905414Y-111103090D01*
X156940514Y-111067990D01*
X157055027Y-111029819D01*
X157125925Y-111029819D01*
X157240438Y-111067990D01*
X157314551Y-111142103D01*
X157353044Y-111219090D01*
X157396428Y-111392624D01*
X157396428Y-111517013D01*
X157353044Y-111690547D01*
X157314550Y-111767534D01*
X157240438Y-111841647D01*
X157125925Y-111879819D01*
X157055027Y-111879819D01*
X156940514Y-111841648D01*
X156905415Y-111806548D01*
X156858918Y-111784866D01*
X156809363Y-111798143D01*
X156779937Y-111840168D01*
X156784407Y-111891275D01*
X156799347Y-111912612D01*
X156846966Y-111960232D01*
X156851030Y-111962127D01*
X156853378Y-111965948D01*
X156876283Y-111978351D01*
X157019139Y-112025970D01*
X157020774Y-112025925D01*
X157042857Y-112029819D01*
X157138095Y-112029819D01*
X157139633Y-112029258D01*
X157161812Y-112025970D01*
X157304669Y-111978351D01*
X157308181Y-111975563D01*
X157312648Y-111975173D01*
X157333985Y-111960233D01*
X157429224Y-111864993D01*
X157429915Y-111863510D01*
X157443272Y-111845502D01*
X157490891Y-111750264D01*
X157491297Y-111746735D01*
X157496570Y-111734913D01*
X157544189Y-111544437D01*
X157543828Y-111540988D01*
X157546428Y-111526247D01*
X157546428Y-111383390D01*
X157545242Y-111380132D01*
X157544189Y-111365200D01*
X157496570Y-111174724D01*
X157494581Y-111171779D01*
X157490891Y-111159373D01*
X157443272Y-111064135D01*
X157442085Y-111063011D01*
X157429223Y-111044643D01*
X157333985Y-110949405D01*
X157329921Y-110947510D01*
X157327574Y-110943689D01*
X157304669Y-110931287D01*
X157161812Y-110883668D01*
X157160177Y-110883712D01*
X157138095Y-110879819D01*
X157042857Y-110879819D01*
X157041319Y-110880378D01*
X157019139Y-110883668D01*
X156876283Y-110931287D01*
X156872770Y-110934074D01*
X156868304Y-110934465D01*
X156846967Y-110949405D01*
X156799348Y-110997024D01*
X156777667Y-111043521D01*
X156341957Y-111043521D01*
X156304484Y-110931102D01*
X156303141Y-110929410D01*
X156303083Y-110927253D01*
X156287341Y-110909500D01*
X156272593Y-110890916D01*
X156270478Y-110890483D01*
X156269045Y-110888867D01*
X156245576Y-110885387D01*
X156222332Y-110880630D01*
X156220432Y-110881658D01*
X156218297Y-110881342D01*
X156198079Y-110893762D01*
X156177218Y-110905059D01*
X156176424Y-110907066D01*
X156174584Y-110908197D01*
X156162182Y-110931102D01*
X155828849Y-111931102D01*
X155498809Y-111931102D01*
X155498809Y-111029819D01*
X155709523Y-111029819D01*
X155757732Y-111012272D01*
X155783384Y-110967843D01*
X155774475Y-110917319D01*
X155735175Y-110884342D01*
X155709523Y-110879819D01*
X155138095Y-110879819D01*
X155089886Y-110897366D01*
X155064234Y-110941795D01*
X154704873Y-110941795D01*
X154685436Y-110883483D01*
X154653545Y-110843297D01*
X154603284Y-110833011D01*
X154558170Y-110857440D01*
X154539313Y-110905151D01*
X154543134Y-110930917D01*
X154748323Y-111546485D01*
X154451190Y-111546485D01*
X154451190Y-111288152D01*
X154433643Y-111239943D01*
X154389214Y-111214291D01*
X154338690Y-111223200D01*
X154305713Y-111262500D01*
X154301190Y-111288152D01*
X154301190Y-111546485D01*
X154233333Y-111546485D01*
X154185124Y-111564032D01*
X154159472Y-111608461D01*
X153707327Y-111608461D01*
X153441742Y-111342876D01*
X153403571Y-111228362D01*
X153403571Y-111163000D01*
X153437829Y-111094484D01*
X153468236Y-111064077D01*
X153536752Y-111029819D01*
X153739437Y-111029819D01*
X153807953Y-111064077D01*
X153846966Y-111103090D01*
X153893462Y-111124771D01*
X153943017Y-111111494D01*
X153972443Y-111069468D01*
X153967972Y-111018361D01*
X153953032Y-110997024D01*
X153905413Y-110949405D01*
X153903931Y-110948714D01*
X153885921Y-110935356D01*
X153790683Y-110887737D01*
X153786229Y-110887224D01*
X153782794Y-110884342D01*
X153757142Y-110879819D01*
X153519047Y-110879819D01*
X153514833Y-110881352D01*
X153510472Y-110880311D01*
X153485506Y-110887737D01*
X153390268Y-110935356D01*
X153389142Y-110936545D01*
X153370776Y-110949405D01*
X153323157Y-110997024D01*
X153322466Y-110998505D01*
X153309108Y-111016516D01*
X153261489Y-111111754D01*
X153260976Y-111116207D01*
X153258094Y-111119643D01*
X153253571Y-111145295D01*
X153253571Y-111240533D01*
X152725847Y-111240533D01*
X152541472Y-111029819D01*
X152995237Y-111029819D01*
X153043446Y-111012272D01*
X153069098Y-110967843D01*
X153060189Y-110917319D01*
X153020889Y-110884342D01*
X152995237Y-110879819D01*
X152376190Y-110879819D01*
X152357190Y-110886734D01*
X152337354Y-110890657D01*
X152333603Y-110895319D01*
X152327981Y-110897366D01*
X152317870Y-110914877D01*
X152305197Y-110930632D01*
X152305320Y-110936613D01*
X152302329Y-110941795D01*
X152305840Y-110961708D01*
X152306259Y-110981923D01*
X152310698Y-110989256D01*
X152311238Y-110992319D01*
X152313907Y-110994558D01*
X152319747Y-111004207D01*
X152547442Y-111264430D01*
X152533125Y-111268689D01*
X152437887Y-111316308D01*
X152436761Y-111317497D01*
X152418395Y-111330357D01*
X152370776Y-111377976D01*
X152370085Y-111379457D01*
X152356727Y-111397468D01*
X152309108Y-111492706D01*
X152308595Y-111497159D01*
X152305713Y-111500595D01*
X152301190Y-111526247D01*
X152301190Y-111764342D01*
X152070237Y-111764342D01*
X152070237Y-111573866D01*
X152068703Y-111569652D01*
X152069745Y-111565291D01*
X152062319Y-111540325D01*
X152014700Y-111445087D01*
X152013510Y-111443961D01*
X152000651Y-111425595D01*
X151958446Y-111383390D01*
X152000651Y-111341185D01*
X152001342Y-111339703D01*
X152014700Y-111321693D01*
X152062319Y-111226455D01*
X152062831Y-111222001D01*
X152065714Y-111218566D01*
X152070237Y-111192914D01*
X152070237Y-111145295D01*
X152068703Y-111141081D01*
X152069745Y-111136720D01*
X152062319Y-111111754D01*
X152014700Y-111016516D01*
X152013510Y-111015390D01*
X152000651Y-110997024D01*
X151953032Y-110949405D01*
X151951550Y-110948714D01*
X151933540Y-110935356D01*
X151838302Y-110887737D01*
X151833848Y-110887224D01*
X151830413Y-110884342D01*
X151804761Y-110879819D01*
X151614285Y-110879819D01*
X151610071Y-110881352D01*
X151605710Y-110880311D01*
X151580744Y-110887737D01*
X151485506Y-110935356D01*
X151484380Y-110936545D01*
X151466014Y-110949405D01*
X151418395Y-110997024D01*
X151417704Y-110998505D01*
X151404346Y-111016516D01*
X151356727Y-111111754D01*
X151356214Y-111116207D01*
X151353332Y-111119643D01*
X151348809Y-111145295D01*
X151348809Y-111192914D01*
X151350342Y-111197127D01*
X151349301Y-111201488D01*
X151356727Y-111226455D01*
X151404346Y-111321693D01*
X151405535Y-111322818D01*
X151418395Y-111341185D01*
X151460600Y-111383390D01*
X151418395Y-111425595D01*
X151417704Y-111427076D01*
X151404346Y-111445087D01*
X151356727Y-111540325D01*
X151356214Y-111544778D01*
X151353332Y-111548214D01*
X151348809Y-111573866D01*
X151348809Y-111764342D01*
X150308332Y-111764342D01*
X150308332Y-110954819D01*
X150290785Y-110906610D01*
X150246356Y-110880958D01*
X150195832Y-110889867D01*
X150162855Y-110929167D01*
X150158332Y-110954819D01*
X150158332Y-111746637D01*
X150124073Y-111815153D01*
X150093666Y-111845561D01*
X150025151Y-111879819D01*
X149870085Y-111879819D01*
X149801569Y-111845561D01*
X149771162Y-111815153D01*
X149736904Y-111746637D01*
X149736904Y-110954819D01*
X149719357Y-110906610D01*
X149674928Y-110880958D01*
X149624404Y-110889867D01*
X149591427Y-110929167D01*
X149586904Y-110954819D01*
X149586904Y-111764342D01*
X149260713Y-111764342D01*
X149260713Y-110954819D01*
X149258340Y-110948301D01*
X149259515Y-110941466D01*
X149249775Y-110924768D01*
X149243166Y-110906610D01*
X149237161Y-110903142D01*
X149233666Y-110897151D01*
X149215474Y-110890621D01*
X149198737Y-110880958D01*
X149191905Y-110882162D01*
X149185379Y-110879820D01*
X149167247Y-110886510D01*
X149148213Y-110889867D01*
X149143755Y-110895179D01*
X149137249Y-110897580D01*
X149120595Y-110917608D01*
X148689285Y-111672402D01*
X148689285Y-110954819D01*
X148671738Y-110906610D01*
X148627309Y-110880958D01*
X148576785Y-110889867D01*
X148543808Y-110929167D01*
X148539285Y-110954819D01*
X148539285Y-111954819D01*
X148213094Y-111954819D01*
X148213094Y-110954819D01*
X148195547Y-110906610D01*
X148151118Y-110880958D01*
X148100594Y-110889867D01*
X148067617Y-110929167D01*
X148063094Y-110954819D01*
X148063094Y-111954819D01*
X147594047Y-111954819D01*
X147594047Y-111029819D01*
X147804761Y-111029819D01*
X147852970Y-111012272D01*
X147878622Y-110967843D01*
X147869713Y-110917319D01*
X147830413Y-110884342D01*
X147804761Y-110879819D01*
X147233333Y-110879819D01*
X147185124Y-110897366D01*
X147159472Y-110941795D01*
X147016615Y-110941795D01*
X147016615Y-110690154D01*
X157689285Y-110690154D01*
X157689285Y-112172676D01*
G37*
D11*
%TO.C,J5*%
X135890000Y-81240000D03*
D12*
X138430000Y-81240000D03*
X135890000Y-83780000D03*
X138430000Y-83780000D03*
X135890000Y-86320000D03*
X138430000Y-86320000D03*
X135890000Y-88860000D03*
X138430000Y-88860000D03*
X135890000Y-91400000D03*
X138430000Y-91400000D03*
X135890000Y-93940000D03*
X138430000Y-93940000D03*
X135890000Y-96480000D03*
X138430000Y-96480000D03*
X135890000Y-99020000D03*
X138430000Y-99020000D03*
X135890000Y-101560000D03*
X138430000Y-101560000D03*
X135890000Y-104100000D03*
X138430000Y-104100000D03*
%TD*%
D13*
%TO.C,H2*%
X133450000Y-109220000D03*
X134152944Y-107522944D03*
X134152944Y-110917056D03*
X135850000Y-106820000D03*
D14*
X135850000Y-109220000D03*
D13*
X135850000Y-111620000D03*
X137547056Y-107522944D03*
X137547056Y-110917056D03*
X138250000Y-109220000D03*
%TD*%
D15*
%TO.C,L1*%
X142340000Y-108100000D03*
D16*
X162660000Y-108100000D03*
%TD*%
D13*
%TO.C,H1*%
X133450000Y-76120000D03*
X134152944Y-74422944D03*
X134152944Y-77817056D03*
X135850000Y-73720000D03*
D14*
X135850000Y-76120000D03*
D13*
X135850000Y-78520000D03*
X137547056Y-74422944D03*
X137547056Y-77817056D03*
X138250000Y-76120000D03*
%TD*%
D11*
%TO.C,J6*%
X166370000Y-81240000D03*
D12*
X168910000Y-81240000D03*
X166370000Y-83780000D03*
X168910000Y-83780000D03*
X166370000Y-86320000D03*
X168910000Y-86320000D03*
X166370000Y-88860000D03*
X168910000Y-88860000D03*
X166370000Y-91400000D03*
X168910000Y-91400000D03*
X166370000Y-93940000D03*
X168910000Y-93940000D03*
X166370000Y-96480000D03*
X168910000Y-96480000D03*
X166370000Y-99020000D03*
X168910000Y-99020000D03*
X166370000Y-101560000D03*
X168910000Y-101560000D03*
X166370000Y-104100000D03*
X168910000Y-104100000D03*
%TD*%
D17*
%TO.C,J2*%
X141900000Y-77600000D03*
D18*
X143400000Y-75900000D03*
X145400000Y-75900000D03*
X147400000Y-75900000D03*
X149400000Y-75900000D03*
%TD*%
D13*
%TO.C,H3*%
X166550000Y-76120000D03*
X167252944Y-74422944D03*
X167252944Y-77817056D03*
X168950000Y-73720000D03*
D14*
X168950000Y-76120000D03*
D13*
X168950000Y-78520000D03*
X170647056Y-74422944D03*
X170647056Y-77817056D03*
X171350000Y-76120000D03*
%TD*%
D11*
%TO.C,J3*%
X148680000Y-90620000D03*
D12*
X148680000Y-93160000D03*
X148680000Y-95700000D03*
%TD*%
D17*
%TO.C,J1*%
X155200000Y-77600000D03*
D18*
X156700000Y-75900000D03*
X158700000Y-75900000D03*
X160700000Y-75900000D03*
X162700000Y-75900000D03*
%TD*%
D13*
%TO.C,H4*%
X166550000Y-109220000D03*
X167252944Y-107522944D03*
X167252944Y-110917056D03*
X168950000Y-106820000D03*
D14*
X168950000Y-109220000D03*
D13*
X168950000Y-111620000D03*
X170647056Y-107522944D03*
X170647056Y-110917056D03*
X171350000Y-109220000D03*
%TD*%
D11*
%TO.C,J4*%
X156300000Y-95700000D03*
D12*
X156300000Y-93160000D03*
X156300000Y-90620000D03*
%TD*%
M02*
