%TF.GenerationSoftware,KiCad,Pcbnew,7.0.9*%
%TF.CreationDate,2023-12-29T11:45:24+09:00*%
%TF.ProjectId,CAT4238_Unit,43415434-3233-4385-9f55-6e69742e6b69,rev?*%
%TF.SameCoordinates,Original*%
%TF.FileFunction,Copper,L4,Inr*%
%TF.FilePolarity,Positive*%
%FSLAX46Y46*%
G04 Gerber Fmt 4.6, Leading zero omitted, Abs format (unit mm)*
G04 Created by KiCad (PCBNEW 7.0.9) date 2023-12-29 11:45:24*
%MOMM*%
%LPD*%
G01*
G04 APERTURE LIST*
%TA.AperFunction,ComponentPad*%
%ADD10R,1.700000X1.700000*%
%TD*%
%TA.AperFunction,ComponentPad*%
%ADD11O,1.700000X1.700000*%
%TD*%
%TA.AperFunction,ComponentPad*%
%ADD12C,0.800000*%
%TD*%
%TA.AperFunction,ComponentPad*%
%ADD13C,6.400000*%
%TD*%
%TA.AperFunction,ComponentPad*%
%ADD14C,2.200000*%
%TD*%
%TA.AperFunction,ComponentPad*%
%ADD15O,2.200000X2.200000*%
%TD*%
%TA.AperFunction,ComponentPad*%
%ADD16C,1.300000*%
%TD*%
G04 APERTURE END LIST*
D10*
%TO.N,+5V*%
%TO.C,J5*%
X135890000Y-81240000D03*
D11*
X138430000Y-81240000D03*
%TO.N,/EN*%
X135890000Y-83780000D03*
%TO.N,/IO34*%
X138430000Y-83780000D03*
%TO.N,/IO32*%
X135890000Y-86320000D03*
%TO.N,/IO35*%
X138430000Y-86320000D03*
%TO.N,/IO25*%
X135890000Y-88860000D03*
%TO.N,/IO33*%
X138430000Y-88860000D03*
%TO.N,/IO27*%
X135890000Y-91400000D03*
%TO.N,/IO26*%
X138430000Y-91400000D03*
%TO.N,/IO12*%
X135890000Y-93940000D03*
%TO.N,/IO14*%
X138430000Y-93940000D03*
%TO.N,unconnected-(J5-Pin_13-Pad13)*%
X135890000Y-96480000D03*
%TO.N,unconnected-(J5-Pin_14-Pad14)*%
X138430000Y-96480000D03*
%TO.N,unconnected-(J5-Pin_15-Pad15)*%
X135890000Y-99020000D03*
%TO.N,unconnected-(J5-Pin_16-Pad16)*%
X138430000Y-99020000D03*
%TO.N,GND*%
X135890000Y-101560000D03*
X138430000Y-101560000D03*
%TO.N,+3V3*%
X135890000Y-104100000D03*
X138430000Y-104100000D03*
%TD*%
D12*
%TO.N,N/C*%
%TO.C,H2*%
X133450000Y-109220000D03*
X134152944Y-107522944D03*
X134152944Y-110917056D03*
X135850000Y-106820000D03*
D13*
X135850000Y-109220000D03*
D12*
X135850000Y-111620000D03*
X137547056Y-107522944D03*
X137547056Y-110917056D03*
X138250000Y-109220000D03*
%TD*%
D14*
%TO.N,+5V*%
%TO.C,L1*%
X142340000Y-108100000D03*
D15*
%TO.N,Net-(IC1-SW)*%
X162660000Y-108100000D03*
%TD*%
D12*
%TO.N,N/C*%
%TO.C,H1*%
X133450000Y-76120000D03*
X134152944Y-74422944D03*
X134152944Y-77817056D03*
X135850000Y-73720000D03*
D13*
X135850000Y-76120000D03*
D12*
X135850000Y-78520000D03*
X137547056Y-74422944D03*
X137547056Y-77817056D03*
X138250000Y-76120000D03*
%TD*%
D10*
%TO.N,+3V3*%
%TO.C,J6*%
X166370000Y-81240000D03*
D11*
X168910000Y-81240000D03*
%TO.N,GND*%
X166370000Y-83780000D03*
X168910000Y-83780000D03*
%TO.N,/TXD0*%
X166370000Y-86320000D03*
%TO.N,/IO22*%
X168910000Y-86320000D03*
%TO.N,/IO21*%
X166370000Y-88860000D03*
%TO.N,/RXD0*%
X168910000Y-88860000D03*
%TO.N,/IO18*%
X166370000Y-91400000D03*
%TO.N,/IO19*%
X168910000Y-91400000D03*
%TO.N,/IO17*%
X166370000Y-93940000D03*
%TO.N,/IO5*%
X168910000Y-93940000D03*
%TO.N,/IO4*%
X166370000Y-96480000D03*
%TO.N,/IO16*%
X168910000Y-96480000D03*
%TO.N,/IO2*%
X166370000Y-99020000D03*
%TO.N,/IO0*%
X168910000Y-99020000D03*
%TO.N,/IO15*%
X166370000Y-101560000D03*
%TO.N,/IO13*%
X168910000Y-101560000D03*
%TO.N,+5V*%
X166370000Y-104100000D03*
X168910000Y-104100000D03*
%TD*%
D16*
%TO.N,GND*%
%TO.C,J2*%
X143400000Y-75900000D03*
%TO.N,/IO21*%
X145400000Y-75900000D03*
%TO.N,/IO32*%
X147400000Y-75900000D03*
%TO.N,+5V*%
X149400000Y-75900000D03*
%TD*%
D12*
%TO.N,N/C*%
%TO.C,H3*%
X166550000Y-76120000D03*
X167252944Y-74422944D03*
X167252944Y-77817056D03*
X168950000Y-73720000D03*
D13*
X168950000Y-76120000D03*
D12*
X168950000Y-78520000D03*
X170647056Y-74422944D03*
X170647056Y-77817056D03*
X171350000Y-76120000D03*
%TD*%
D10*
%TO.N,/SHDN*%
%TO.C,J3*%
X148680000Y-90620000D03*
D11*
%TO.N,unconnected-(J3-Pin_2-Pad2)*%
X148680000Y-93160000D03*
%TO.N,+5V*%
X148680000Y-95700000D03*
%TD*%
D16*
%TO.N,GND*%
%TO.C,J1*%
X156700000Y-75900000D03*
%TO.N,/IO21*%
X158700000Y-75900000D03*
%TO.N,/LED_-*%
X160700000Y-75900000D03*
%TO.N,/LED_+*%
X162700000Y-75900000D03*
%TD*%
D12*
%TO.N,N/C*%
%TO.C,H4*%
X166550000Y-109220000D03*
X167252944Y-107522944D03*
X167252944Y-110917056D03*
X168950000Y-106820000D03*
D13*
X168950000Y-109220000D03*
D12*
X168950000Y-111620000D03*
X170647056Y-107522944D03*
X170647056Y-110917056D03*
X171350000Y-109220000D03*
%TD*%
D10*
%TO.N,Net-(IC1-SW)*%
%TO.C,J4*%
X156300000Y-95700000D03*
D11*
%TO.N,GND*%
X156300000Y-93160000D03*
%TO.N,/LED_-*%
X156300000Y-90620000D03*
%TD*%
%TA.AperFunction,Conductor*%
%TO.N,+3V3*%
G36*
X167119515Y-72690185D02*
G01*
X167165270Y-72742989D01*
X167175214Y-72812147D01*
X167146189Y-72875703D01*
X167108770Y-72904985D01*
X167097211Y-72910874D01*
X167097208Y-72910875D01*
X166771917Y-73122122D01*
X166470488Y-73366215D01*
X166470480Y-73366222D01*
X166196222Y-73640480D01*
X166196215Y-73640488D01*
X165952122Y-73941917D01*
X165740877Y-74267206D01*
X165564787Y-74612802D01*
X165425788Y-74974905D01*
X165325397Y-75349570D01*
X165325397Y-75349572D01*
X165264722Y-75732660D01*
X165244422Y-76119999D01*
X165244422Y-76120000D01*
X165264722Y-76507339D01*
X165314806Y-76823556D01*
X165325398Y-76890433D01*
X165408150Y-77199270D01*
X165425788Y-77265094D01*
X165564787Y-77627197D01*
X165740877Y-77972793D01*
X165952122Y-78298082D01*
X166043345Y-78410733D01*
X166196219Y-78599516D01*
X166470484Y-78873781D01*
X166470488Y-78873784D01*
X166771917Y-79117877D01*
X167097206Y-79329122D01*
X167097211Y-79329125D01*
X167442806Y-79505214D01*
X167804913Y-79644214D01*
X168179567Y-79744602D01*
X168333560Y-79768991D01*
X168396693Y-79798920D01*
X168433625Y-79858231D01*
X168432627Y-79928094D01*
X168394018Y-79986326D01*
X168366567Y-80003846D01*
X168232419Y-80066401D01*
X168038926Y-80201886D01*
X167916477Y-80324335D01*
X167855154Y-80357819D01*
X167785462Y-80352835D01*
X167729529Y-80310963D01*
X167712614Y-80279986D01*
X167663354Y-80147913D01*
X167663350Y-80147906D01*
X167577190Y-80032812D01*
X167577187Y-80032809D01*
X167462093Y-79946649D01*
X167462086Y-79946645D01*
X167327379Y-79896403D01*
X167327372Y-79896401D01*
X167267844Y-79890000D01*
X166620000Y-79890000D01*
X166620000Y-80804498D01*
X166512315Y-80755320D01*
X166405763Y-80740000D01*
X166334237Y-80740000D01*
X166227685Y-80755320D01*
X166120000Y-80804498D01*
X166120000Y-79890000D01*
X165472155Y-79890000D01*
X165412627Y-79896401D01*
X165412620Y-79896403D01*
X165277913Y-79946645D01*
X165277906Y-79946649D01*
X165162812Y-80032809D01*
X165162809Y-80032812D01*
X165076649Y-80147906D01*
X165076645Y-80147913D01*
X165026403Y-80282620D01*
X165026401Y-80282627D01*
X165020000Y-80342155D01*
X165020000Y-80990000D01*
X165936314Y-80990000D01*
X165910507Y-81030156D01*
X165870000Y-81168111D01*
X165870000Y-81311889D01*
X165910507Y-81449844D01*
X165936314Y-81490000D01*
X165020000Y-81490000D01*
X165020000Y-82137844D01*
X165026401Y-82197372D01*
X165026403Y-82197379D01*
X165076645Y-82332086D01*
X165076649Y-82332093D01*
X165162809Y-82447187D01*
X165162812Y-82447190D01*
X165277906Y-82533350D01*
X165277913Y-82533354D01*
X165409470Y-82582421D01*
X165465403Y-82624292D01*
X165489821Y-82689756D01*
X165474970Y-82758029D01*
X165453819Y-82786284D01*
X165331503Y-82908600D01*
X165195965Y-83102169D01*
X165195964Y-83102171D01*
X165096098Y-83316335D01*
X165096094Y-83316344D01*
X165034938Y-83544586D01*
X165034936Y-83544596D01*
X165014341Y-83779999D01*
X165014341Y-83780000D01*
X165034936Y-84015403D01*
X165034938Y-84015413D01*
X165096094Y-84243655D01*
X165096096Y-84243659D01*
X165096097Y-84243663D01*
X165100000Y-84252032D01*
X165195965Y-84457830D01*
X165195967Y-84457834D01*
X165304281Y-84612521D01*
X165331501Y-84651396D01*
X165331506Y-84651402D01*
X165498597Y-84818493D01*
X165498603Y-84818498D01*
X165684158Y-84948425D01*
X165727783Y-85003002D01*
X165734977Y-85072500D01*
X165703454Y-85134855D01*
X165684158Y-85151575D01*
X165498597Y-85281505D01*
X165331505Y-85448597D01*
X165195965Y-85642169D01*
X165195964Y-85642171D01*
X165096098Y-85856335D01*
X165096094Y-85856344D01*
X165034938Y-86084586D01*
X165034936Y-86084596D01*
X165014341Y-86319999D01*
X165014341Y-86320000D01*
X165034936Y-86555403D01*
X165034938Y-86555413D01*
X165096094Y-86783655D01*
X165096096Y-86783659D01*
X165096097Y-86783663D01*
X165100000Y-86792032D01*
X165195965Y-86997830D01*
X165195967Y-86997834D01*
X165304281Y-87152521D01*
X165331501Y-87191396D01*
X165331506Y-87191402D01*
X165498597Y-87358493D01*
X165498603Y-87358498D01*
X165684158Y-87488425D01*
X165727783Y-87543002D01*
X165734977Y-87612500D01*
X165703454Y-87674855D01*
X165684158Y-87691575D01*
X165498597Y-87821505D01*
X165331505Y-87988597D01*
X165195965Y-88182169D01*
X165195964Y-88182171D01*
X165096098Y-88396335D01*
X165096094Y-88396344D01*
X165034938Y-88624586D01*
X165034936Y-88624596D01*
X165014341Y-88859999D01*
X165014341Y-88860000D01*
X165034936Y-89095403D01*
X165034938Y-89095413D01*
X165096094Y-89323655D01*
X165096096Y-89323659D01*
X165096097Y-89323663D01*
X165176004Y-89495023D01*
X165195965Y-89537830D01*
X165195967Y-89537834D01*
X165226547Y-89581506D01*
X165331501Y-89731396D01*
X165331506Y-89731402D01*
X165498597Y-89898493D01*
X165498603Y-89898498D01*
X165684158Y-90028425D01*
X165727783Y-90083002D01*
X165734977Y-90152500D01*
X165703454Y-90214855D01*
X165684158Y-90231575D01*
X165498597Y-90361505D01*
X165331505Y-90528597D01*
X165195965Y-90722169D01*
X165195964Y-90722171D01*
X165096098Y-90936335D01*
X165096094Y-90936344D01*
X165034938Y-91164586D01*
X165034936Y-91164596D01*
X165014341Y-91399999D01*
X165014341Y-91400000D01*
X165034936Y-91635403D01*
X165034938Y-91635413D01*
X165096094Y-91863655D01*
X165096096Y-91863659D01*
X165096097Y-91863663D01*
X165145916Y-91970499D01*
X165195965Y-92077830D01*
X165195967Y-92077834D01*
X165258174Y-92166674D01*
X165331501Y-92271396D01*
X165331506Y-92271402D01*
X165498597Y-92438493D01*
X165498603Y-92438498D01*
X165684158Y-92568425D01*
X165727783Y-92623002D01*
X165734977Y-92692500D01*
X165703454Y-92754855D01*
X165684158Y-92771575D01*
X165498597Y-92901505D01*
X165331505Y-93068597D01*
X165195965Y-93262169D01*
X165195964Y-93262171D01*
X165096098Y-93476335D01*
X165096094Y-93476344D01*
X165034938Y-93704586D01*
X165034936Y-93704596D01*
X165014341Y-93939999D01*
X165014341Y-93940000D01*
X165034936Y-94175403D01*
X165034938Y-94175413D01*
X165096094Y-94403655D01*
X165096096Y-94403659D01*
X165096097Y-94403663D01*
X165130294Y-94476998D01*
X165195965Y-94617830D01*
X165195967Y-94617834D01*
X165226547Y-94661506D01*
X165331501Y-94811396D01*
X165331506Y-94811402D01*
X165498597Y-94978493D01*
X165498603Y-94978498D01*
X165684158Y-95108425D01*
X165727783Y-95163002D01*
X165734977Y-95232500D01*
X165703454Y-95294855D01*
X165684158Y-95311575D01*
X165498597Y-95441505D01*
X165331505Y-95608597D01*
X165195965Y-95802169D01*
X165195964Y-95802171D01*
X165096098Y-96016335D01*
X165096094Y-96016344D01*
X165034938Y-96244586D01*
X165034936Y-96244596D01*
X165014341Y-96479999D01*
X165014341Y-96480000D01*
X165034936Y-96715403D01*
X165034938Y-96715413D01*
X165096094Y-96943655D01*
X165096096Y-96943659D01*
X165096097Y-96943663D01*
X165145915Y-97050498D01*
X165195965Y-97157830D01*
X165195967Y-97157834D01*
X165304281Y-97312521D01*
X165331501Y-97351396D01*
X165331506Y-97351402D01*
X165498597Y-97518493D01*
X165498603Y-97518498D01*
X165684158Y-97648425D01*
X165727783Y-97703002D01*
X165734977Y-97772500D01*
X165703454Y-97834855D01*
X165684158Y-97851575D01*
X165498597Y-97981505D01*
X165331505Y-98148597D01*
X165195965Y-98342169D01*
X165195964Y-98342171D01*
X165096098Y-98556335D01*
X165096094Y-98556344D01*
X165034938Y-98784586D01*
X165034936Y-98784596D01*
X165014341Y-99019999D01*
X165014341Y-99020000D01*
X165034936Y-99255403D01*
X165034938Y-99255413D01*
X165096094Y-99483655D01*
X165096096Y-99483659D01*
X165096097Y-99483663D01*
X165100000Y-99492032D01*
X165195965Y-99697830D01*
X165195967Y-99697834D01*
X165304281Y-99852521D01*
X165331501Y-99891396D01*
X165331506Y-99891402D01*
X165498597Y-100058493D01*
X165498603Y-100058498D01*
X165684158Y-100188425D01*
X165727783Y-100243002D01*
X165734977Y-100312500D01*
X165703454Y-100374855D01*
X165684158Y-100391575D01*
X165498597Y-100521505D01*
X165331505Y-100688597D01*
X165195965Y-100882169D01*
X165195964Y-100882171D01*
X165096098Y-101096335D01*
X165096094Y-101096344D01*
X165034938Y-101324586D01*
X165034936Y-101324596D01*
X165014341Y-101559999D01*
X165014341Y-101560000D01*
X165034936Y-101795403D01*
X165034938Y-101795413D01*
X165096094Y-102023655D01*
X165096096Y-102023659D01*
X165096097Y-102023663D01*
X165100000Y-102032032D01*
X165195965Y-102237830D01*
X165195967Y-102237834D01*
X165304281Y-102392521D01*
X165331501Y-102431396D01*
X165331506Y-102431402D01*
X165498597Y-102598493D01*
X165498603Y-102598498D01*
X165684158Y-102728425D01*
X165727783Y-102783002D01*
X165734977Y-102852500D01*
X165703454Y-102914855D01*
X165684158Y-102931575D01*
X165498597Y-103061505D01*
X165331505Y-103228597D01*
X165195965Y-103422169D01*
X165195964Y-103422171D01*
X165096098Y-103636335D01*
X165096094Y-103636344D01*
X165034938Y-103864586D01*
X165034936Y-103864596D01*
X165014341Y-104099999D01*
X165014341Y-104100000D01*
X165034936Y-104335403D01*
X165034938Y-104335413D01*
X165096094Y-104563655D01*
X165096096Y-104563659D01*
X165096097Y-104563663D01*
X165175597Y-104734151D01*
X165195965Y-104777830D01*
X165195967Y-104777834D01*
X165304281Y-104932521D01*
X165331505Y-104971401D01*
X165498599Y-105138495D01*
X165595384Y-105206265D01*
X165692165Y-105274032D01*
X165692167Y-105274033D01*
X165692170Y-105274035D01*
X165906337Y-105373903D01*
X166134592Y-105435063D01*
X166322918Y-105451539D01*
X166369999Y-105455659D01*
X166370000Y-105455659D01*
X166370001Y-105455659D01*
X166409234Y-105452226D01*
X166605408Y-105435063D01*
X166833663Y-105373903D01*
X167047830Y-105274035D01*
X167241401Y-105138495D01*
X167408495Y-104971401D01*
X167538425Y-104785842D01*
X167593002Y-104742217D01*
X167662500Y-104735023D01*
X167724855Y-104766546D01*
X167741575Y-104785842D01*
X167871500Y-104971395D01*
X167871505Y-104971401D01*
X168038599Y-105138495D01*
X168135384Y-105206265D01*
X168232165Y-105274032D01*
X168232167Y-105274033D01*
X168232170Y-105274035D01*
X168336003Y-105322453D01*
X168365682Y-105336293D01*
X168418121Y-105382466D01*
X168437273Y-105449659D01*
X168417057Y-105516540D01*
X168363892Y-105561875D01*
X168332675Y-105571148D01*
X168179572Y-105595397D01*
X168179570Y-105595397D01*
X167804905Y-105695788D01*
X167442802Y-105834787D01*
X167097206Y-106010877D01*
X166771917Y-106222122D01*
X166470488Y-106466215D01*
X166470480Y-106466222D01*
X166196222Y-106740480D01*
X166196215Y-106740488D01*
X165952122Y-107041917D01*
X165740877Y-107367206D01*
X165564787Y-107712802D01*
X165425788Y-108074905D01*
X165325397Y-108449570D01*
X165325397Y-108449572D01*
X165264722Y-108832660D01*
X165244422Y-109219999D01*
X165244422Y-109220000D01*
X165264722Y-109607339D01*
X165325397Y-109990427D01*
X165325397Y-109990429D01*
X165425788Y-110365094D01*
X165564787Y-110727197D01*
X165740877Y-111072793D01*
X165952122Y-111398082D01*
X165952124Y-111398084D01*
X166196219Y-111699516D01*
X166470484Y-111973781D01*
X166470488Y-111973784D01*
X166771917Y-112217877D01*
X167097208Y-112429124D01*
X167097211Y-112429125D01*
X167108770Y-112435015D01*
X167159566Y-112482989D01*
X167176362Y-112550809D01*
X167153825Y-112616944D01*
X167099111Y-112660397D01*
X167052476Y-112669500D01*
X147355431Y-112669500D01*
X137996954Y-112508542D01*
X137930263Y-112487707D01*
X137885422Y-112434124D01*
X137876670Y-112364805D01*
X137906783Y-112301758D01*
X137931551Y-112280565D01*
X138028082Y-112217877D01*
X138028084Y-112217876D01*
X138329516Y-111973781D01*
X138603781Y-111699516D01*
X138847876Y-111398084D01*
X139059125Y-111072789D01*
X139235214Y-110727194D01*
X139374214Y-110365087D01*
X139474602Y-109990433D01*
X139535278Y-109607338D01*
X139555578Y-109220000D01*
X139535278Y-108832662D01*
X139474602Y-108449567D01*
X139380936Y-108100000D01*
X140734551Y-108100000D01*
X140754317Y-108351151D01*
X140813126Y-108596110D01*
X140909533Y-108828859D01*
X141041160Y-109043653D01*
X141041161Y-109043656D01*
X141041164Y-109043659D01*
X141204776Y-109235224D01*
X141353066Y-109361875D01*
X141396343Y-109398838D01*
X141396346Y-109398839D01*
X141611140Y-109530466D01*
X141843889Y-109626873D01*
X142088852Y-109685683D01*
X142340000Y-109705449D01*
X142591148Y-109685683D01*
X142836111Y-109626873D01*
X143068859Y-109530466D01*
X143283659Y-109398836D01*
X143475224Y-109235224D01*
X143638836Y-109043659D01*
X143770466Y-108828859D01*
X143866873Y-108596111D01*
X143925683Y-108351148D01*
X143945449Y-108100000D01*
X161054551Y-108100000D01*
X161074317Y-108351151D01*
X161133126Y-108596110D01*
X161229533Y-108828859D01*
X161361160Y-109043653D01*
X161361161Y-109043656D01*
X161361164Y-109043659D01*
X161524776Y-109235224D01*
X161673066Y-109361875D01*
X161716343Y-109398838D01*
X161716346Y-109398839D01*
X161931140Y-109530466D01*
X162163889Y-109626873D01*
X162408852Y-109685683D01*
X162660000Y-109705449D01*
X162911148Y-109685683D01*
X163156111Y-109626873D01*
X163388859Y-109530466D01*
X163603659Y-109398836D01*
X163795224Y-109235224D01*
X163958836Y-109043659D01*
X164090466Y-108828859D01*
X164186873Y-108596111D01*
X164245683Y-108351148D01*
X164265449Y-108100000D01*
X164245683Y-107848852D01*
X164186873Y-107603889D01*
X164109125Y-107416188D01*
X164090466Y-107371140D01*
X163958839Y-107156346D01*
X163958838Y-107156343D01*
X163921875Y-107113066D01*
X163795224Y-106964776D01*
X163668571Y-106856604D01*
X163603656Y-106801161D01*
X163603653Y-106801160D01*
X163388859Y-106669533D01*
X163156110Y-106573126D01*
X162911151Y-106514317D01*
X162660000Y-106494551D01*
X162408848Y-106514317D01*
X162163889Y-106573126D01*
X161931140Y-106669533D01*
X161716346Y-106801160D01*
X161716343Y-106801161D01*
X161524776Y-106964776D01*
X161361161Y-107156343D01*
X161361160Y-107156346D01*
X161229533Y-107371140D01*
X161133126Y-107603889D01*
X161074317Y-107848848D01*
X161054551Y-108100000D01*
X143945449Y-108100000D01*
X143925683Y-107848852D01*
X143866873Y-107603889D01*
X143789125Y-107416188D01*
X143770466Y-107371140D01*
X143638839Y-107156346D01*
X143638838Y-107156343D01*
X143601875Y-107113066D01*
X143475224Y-106964776D01*
X143348571Y-106856604D01*
X143283656Y-106801161D01*
X143283653Y-106801160D01*
X143068859Y-106669533D01*
X142836110Y-106573126D01*
X142591151Y-106514317D01*
X142340000Y-106494551D01*
X142088848Y-106514317D01*
X141843889Y-106573126D01*
X141611140Y-106669533D01*
X141396346Y-106801160D01*
X141396343Y-106801161D01*
X141204776Y-106964776D01*
X141041161Y-107156343D01*
X141041160Y-107156346D01*
X140909533Y-107371140D01*
X140813126Y-107603889D01*
X140754317Y-107848848D01*
X140734551Y-108100000D01*
X139380936Y-108100000D01*
X139374214Y-108074913D01*
X139235214Y-107712806D01*
X139059125Y-107367211D01*
X139059122Y-107367207D01*
X139059122Y-107367206D01*
X138847877Y-107041917D01*
X138603784Y-106740488D01*
X138603781Y-106740484D01*
X138329516Y-106466219D01*
X138028084Y-106222124D01*
X138028082Y-106222122D01*
X137702793Y-106010877D01*
X137357197Y-105834787D01*
X136995094Y-105695788D01*
X136995087Y-105695786D01*
X136620433Y-105595398D01*
X136620429Y-105595397D01*
X136620428Y-105595397D01*
X136466440Y-105571008D01*
X136403305Y-105541079D01*
X136366374Y-105481767D01*
X136367372Y-105411905D01*
X136405982Y-105353672D01*
X136433433Y-105336153D01*
X136567578Y-105273600D01*
X136761082Y-105138105D01*
X136928105Y-104971082D01*
X137058425Y-104784968D01*
X137113002Y-104741344D01*
X137182501Y-104734151D01*
X137244855Y-104765673D01*
X137261575Y-104784968D01*
X137391894Y-104971082D01*
X137558917Y-105138105D01*
X137752421Y-105273600D01*
X137966507Y-105373429D01*
X137966516Y-105373433D01*
X138180000Y-105430634D01*
X138180000Y-104535501D01*
X138287685Y-104584680D01*
X138394237Y-104600000D01*
X138465763Y-104600000D01*
X138572315Y-104584680D01*
X138680000Y-104535501D01*
X138680000Y-105430633D01*
X138893483Y-105373433D01*
X138893492Y-105373429D01*
X139107578Y-105273600D01*
X139301082Y-105138105D01*
X139468105Y-104971082D01*
X139603600Y-104777578D01*
X139703429Y-104563492D01*
X139703432Y-104563486D01*
X139760636Y-104350000D01*
X138863686Y-104350000D01*
X138889493Y-104309844D01*
X138930000Y-104171889D01*
X138930000Y-104028111D01*
X138889493Y-103890156D01*
X138863686Y-103850000D01*
X139760636Y-103850000D01*
X139760635Y-103849999D01*
X139703432Y-103636513D01*
X139703429Y-103636507D01*
X139603600Y-103422422D01*
X139603599Y-103422420D01*
X139468113Y-103228926D01*
X139468108Y-103228920D01*
X139301078Y-103061890D01*
X139115405Y-102931879D01*
X139071780Y-102877302D01*
X139064588Y-102807804D01*
X139096110Y-102745449D01*
X139115406Y-102728730D01*
X139115842Y-102728425D01*
X139301401Y-102598495D01*
X139468495Y-102431401D01*
X139604035Y-102237830D01*
X139703903Y-102023663D01*
X139765063Y-101795408D01*
X139785659Y-101560000D01*
X139765063Y-101324592D01*
X139703903Y-101096337D01*
X139604035Y-100882171D01*
X139598425Y-100874158D01*
X139468494Y-100688597D01*
X139301402Y-100521506D01*
X139301396Y-100521501D01*
X139115842Y-100391575D01*
X139072217Y-100336998D01*
X139065023Y-100267500D01*
X139096546Y-100205145D01*
X139115842Y-100188425D01*
X139138026Y-100172891D01*
X139301401Y-100058495D01*
X139468495Y-99891401D01*
X139604035Y-99697830D01*
X139703903Y-99483663D01*
X139765063Y-99255408D01*
X139785659Y-99020000D01*
X139765063Y-98784592D01*
X139703903Y-98556337D01*
X139604035Y-98342171D01*
X139598425Y-98334158D01*
X139468494Y-98148597D01*
X139301402Y-97981506D01*
X139301396Y-97981501D01*
X139115842Y-97851575D01*
X139072217Y-97796998D01*
X139065023Y-97727500D01*
X139096546Y-97665145D01*
X139115842Y-97648425D01*
X139138026Y-97632891D01*
X139301401Y-97518495D01*
X139468495Y-97351401D01*
X139604035Y-97157830D01*
X139703903Y-96943663D01*
X139765063Y-96715408D01*
X139785659Y-96480000D01*
X139765063Y-96244592D01*
X139703903Y-96016337D01*
X139604035Y-95802171D01*
X139598425Y-95794158D01*
X139532495Y-95700000D01*
X147324341Y-95700000D01*
X147344936Y-95935403D01*
X147344938Y-95935413D01*
X147406094Y-96163655D01*
X147406096Y-96163659D01*
X147406097Y-96163663D01*
X147443832Y-96244586D01*
X147505965Y-96377830D01*
X147505967Y-96377834D01*
X147577505Y-96480000D01*
X147641505Y-96571401D01*
X147808599Y-96738495D01*
X147905384Y-96806265D01*
X148002165Y-96874032D01*
X148002167Y-96874033D01*
X148002170Y-96874035D01*
X148216337Y-96973903D01*
X148444592Y-97035063D01*
X148621034Y-97050500D01*
X148679999Y-97055659D01*
X148680000Y-97055659D01*
X148680001Y-97055659D01*
X148738966Y-97050500D01*
X148915408Y-97035063D01*
X149143663Y-96973903D01*
X149357830Y-96874035D01*
X149551401Y-96738495D01*
X149718495Y-96571401D01*
X149854035Y-96377830D01*
X149953903Y-96163663D01*
X150015063Y-95935408D01*
X150035659Y-95700000D01*
X150015063Y-95464592D01*
X149953903Y-95236337D01*
X149854035Y-95022171D01*
X149823452Y-94978493D01*
X149718494Y-94828597D01*
X149551402Y-94661506D01*
X149551396Y-94661501D01*
X149365842Y-94531575D01*
X149322217Y-94476998D01*
X149315023Y-94407500D01*
X149346546Y-94345145D01*
X149365842Y-94328425D01*
X149478054Y-94249853D01*
X149551401Y-94198495D01*
X149718495Y-94031401D01*
X149854035Y-93837830D01*
X149953903Y-93623663D01*
X150015063Y-93395408D01*
X150035659Y-93160000D01*
X154944341Y-93160000D01*
X154964936Y-93395403D01*
X154964938Y-93395413D01*
X155026094Y-93623655D01*
X155026096Y-93623659D01*
X155026097Y-93623663D01*
X155063832Y-93704586D01*
X155125965Y-93837830D01*
X155125967Y-93837834D01*
X155197505Y-93940000D01*
X155261501Y-94031396D01*
X155261506Y-94031402D01*
X155383430Y-94153326D01*
X155416915Y-94214649D01*
X155411931Y-94284341D01*
X155370059Y-94340274D01*
X155339083Y-94357189D01*
X155207669Y-94406203D01*
X155207664Y-94406206D01*
X155092455Y-94492452D01*
X155092452Y-94492455D01*
X155006206Y-94607664D01*
X155006202Y-94607671D01*
X154955908Y-94742517D01*
X154949501Y-94802116D01*
X154949501Y-94802123D01*
X154949500Y-94802135D01*
X154949500Y-96597870D01*
X154949501Y-96597876D01*
X154955908Y-96657483D01*
X155006202Y-96792328D01*
X155006206Y-96792335D01*
X155092452Y-96907544D01*
X155092455Y-96907547D01*
X155207664Y-96993793D01*
X155207671Y-96993797D01*
X155342517Y-97044091D01*
X155342516Y-97044091D01*
X155349444Y-97044835D01*
X155402127Y-97050500D01*
X157197872Y-97050499D01*
X157257483Y-97044091D01*
X157392331Y-96993796D01*
X157507546Y-96907546D01*
X157593796Y-96792331D01*
X157644091Y-96657483D01*
X157650500Y-96597873D01*
X157650499Y-94802128D01*
X157644091Y-94742517D01*
X157597587Y-94617834D01*
X157593797Y-94607671D01*
X157593793Y-94607664D01*
X157507547Y-94492455D01*
X157507544Y-94492452D01*
X157392335Y-94406206D01*
X157392328Y-94406202D01*
X157260917Y-94357189D01*
X157204983Y-94315318D01*
X157180566Y-94249853D01*
X157195418Y-94181580D01*
X157216563Y-94153332D01*
X157338495Y-94031401D01*
X157474035Y-93837830D01*
X157573903Y-93623663D01*
X157635063Y-93395408D01*
X157655659Y-93160000D01*
X157635063Y-92924592D01*
X157573903Y-92696337D01*
X157474035Y-92482171D01*
X157443452Y-92438493D01*
X157338494Y-92288597D01*
X157171402Y-92121506D01*
X157171396Y-92121501D01*
X156985842Y-91991575D01*
X156942217Y-91936998D01*
X156935023Y-91867500D01*
X156966546Y-91805145D01*
X156985842Y-91788425D01*
X157008026Y-91772891D01*
X157171401Y-91658495D01*
X157338495Y-91491401D01*
X157474035Y-91297830D01*
X157573903Y-91083663D01*
X157635063Y-90855408D01*
X157655659Y-90620000D01*
X157635063Y-90384592D01*
X157573903Y-90156337D01*
X157474035Y-89942171D01*
X157443452Y-89898493D01*
X157338494Y-89748597D01*
X157171402Y-89581506D01*
X157171395Y-89581501D01*
X156977834Y-89445967D01*
X156977830Y-89445965D01*
X156977828Y-89445964D01*
X156763663Y-89346097D01*
X156763659Y-89346096D01*
X156763655Y-89346094D01*
X156535413Y-89284938D01*
X156535403Y-89284936D01*
X156300001Y-89264341D01*
X156299999Y-89264341D01*
X156064596Y-89284936D01*
X156064586Y-89284938D01*
X155836344Y-89346094D01*
X155836335Y-89346098D01*
X155622171Y-89445964D01*
X155622169Y-89445965D01*
X155428597Y-89581505D01*
X155261505Y-89748597D01*
X155125965Y-89942169D01*
X155125964Y-89942171D01*
X155026098Y-90156335D01*
X155026094Y-90156344D01*
X154964938Y-90384586D01*
X154964936Y-90384596D01*
X154944341Y-90619999D01*
X154944341Y-90620000D01*
X154964936Y-90855403D01*
X154964938Y-90855413D01*
X155026094Y-91083655D01*
X155026096Y-91083659D01*
X155026097Y-91083663D01*
X155063832Y-91164586D01*
X155125965Y-91297830D01*
X155125967Y-91297834D01*
X155261501Y-91491395D01*
X155261506Y-91491402D01*
X155428597Y-91658493D01*
X155428603Y-91658498D01*
X155614158Y-91788425D01*
X155657783Y-91843002D01*
X155664977Y-91912500D01*
X155633454Y-91974855D01*
X155614158Y-91991575D01*
X155428597Y-92121505D01*
X155261505Y-92288597D01*
X155125965Y-92482169D01*
X155125964Y-92482171D01*
X155026098Y-92696335D01*
X155026094Y-92696344D01*
X154964938Y-92924586D01*
X154964936Y-92924596D01*
X154944341Y-93159999D01*
X154944341Y-93160000D01*
X150035659Y-93160000D01*
X150015063Y-92924592D01*
X149953903Y-92696337D01*
X149854035Y-92482171D01*
X149823451Y-92438493D01*
X149718496Y-92288600D01*
X149701291Y-92271395D01*
X149596567Y-92166671D01*
X149563084Y-92105351D01*
X149568068Y-92035659D01*
X149609939Y-91979725D01*
X149640915Y-91962810D01*
X149772331Y-91913796D01*
X149887546Y-91827546D01*
X149973796Y-91712331D01*
X150024091Y-91577483D01*
X150030500Y-91517873D01*
X150030499Y-89722128D01*
X150024091Y-89662517D01*
X149977587Y-89537834D01*
X149973797Y-89527671D01*
X149973793Y-89527664D01*
X149887547Y-89412455D01*
X149887544Y-89412452D01*
X149772335Y-89326206D01*
X149772328Y-89326202D01*
X149637482Y-89275908D01*
X149637483Y-89275908D01*
X149577883Y-89269501D01*
X149577881Y-89269500D01*
X149577873Y-89269500D01*
X149577864Y-89269500D01*
X147782129Y-89269500D01*
X147782123Y-89269501D01*
X147722516Y-89275908D01*
X147587671Y-89326202D01*
X147587664Y-89326206D01*
X147472455Y-89412452D01*
X147472452Y-89412455D01*
X147386206Y-89527664D01*
X147386202Y-89527671D01*
X147335908Y-89662517D01*
X147329501Y-89722116D01*
X147329501Y-89722123D01*
X147329500Y-89722135D01*
X147329500Y-91517870D01*
X147329501Y-91517876D01*
X147335908Y-91577483D01*
X147386202Y-91712328D01*
X147386206Y-91712335D01*
X147472452Y-91827544D01*
X147472455Y-91827547D01*
X147587664Y-91913793D01*
X147587671Y-91913797D01*
X147719081Y-91962810D01*
X147775015Y-92004681D01*
X147799432Y-92070145D01*
X147784580Y-92138418D01*
X147763430Y-92166673D01*
X147641503Y-92288600D01*
X147505965Y-92482169D01*
X147505964Y-92482171D01*
X147406098Y-92696335D01*
X147406094Y-92696344D01*
X147344938Y-92924586D01*
X147344936Y-92924596D01*
X147324341Y-93159999D01*
X147324341Y-93160000D01*
X147344936Y-93395403D01*
X147344938Y-93395413D01*
X147406094Y-93623655D01*
X147406096Y-93623659D01*
X147406097Y-93623663D01*
X147443832Y-93704586D01*
X147505965Y-93837830D01*
X147505967Y-93837834D01*
X147577505Y-93940000D01*
X147641501Y-94031396D01*
X147641506Y-94031402D01*
X147808597Y-94198493D01*
X147808603Y-94198498D01*
X147994158Y-94328425D01*
X148037783Y-94383002D01*
X148044977Y-94452500D01*
X148013454Y-94514855D01*
X147994158Y-94531575D01*
X147808597Y-94661505D01*
X147641505Y-94828597D01*
X147505965Y-95022169D01*
X147505964Y-95022171D01*
X147406098Y-95236335D01*
X147406094Y-95236344D01*
X147344938Y-95464586D01*
X147344936Y-95464596D01*
X147324341Y-95699999D01*
X147324341Y-95700000D01*
X139532495Y-95700000D01*
X139468494Y-95608597D01*
X139301402Y-95441506D01*
X139301396Y-95441501D01*
X139115842Y-95311575D01*
X139072217Y-95256998D01*
X139065023Y-95187500D01*
X139096546Y-95125145D01*
X139115842Y-95108425D01*
X139239028Y-95022169D01*
X139301401Y-94978495D01*
X139468495Y-94811401D01*
X139604035Y-94617830D01*
X139703903Y-94403663D01*
X139765063Y-94175408D01*
X139785659Y-93940000D01*
X139765063Y-93704592D01*
X139703903Y-93476337D01*
X139604035Y-93262171D01*
X139598425Y-93254158D01*
X139468494Y-93068597D01*
X139301402Y-92901506D01*
X139301396Y-92901501D01*
X139115842Y-92771575D01*
X139072217Y-92716998D01*
X139065023Y-92647500D01*
X139096546Y-92585145D01*
X139115842Y-92568425D01*
X139239028Y-92482169D01*
X139301401Y-92438495D01*
X139468495Y-92271401D01*
X139604035Y-92077830D01*
X139703903Y-91863663D01*
X139765063Y-91635408D01*
X139785659Y-91400000D01*
X139765063Y-91164592D01*
X139703903Y-90936337D01*
X139604035Y-90722171D01*
X139598425Y-90714158D01*
X139468494Y-90528597D01*
X139301402Y-90361506D01*
X139301396Y-90361501D01*
X139115842Y-90231575D01*
X139072217Y-90176998D01*
X139065023Y-90107500D01*
X139096546Y-90045145D01*
X139115842Y-90028425D01*
X139239028Y-89942169D01*
X139301401Y-89898495D01*
X139468495Y-89731401D01*
X139604035Y-89537830D01*
X139703903Y-89323663D01*
X139765063Y-89095408D01*
X139785659Y-88860000D01*
X139765063Y-88624592D01*
X139703903Y-88396337D01*
X139604035Y-88182171D01*
X139598425Y-88174158D01*
X139468494Y-87988597D01*
X139301402Y-87821506D01*
X139301396Y-87821501D01*
X139115842Y-87691575D01*
X139072217Y-87636998D01*
X139065023Y-87567500D01*
X139096546Y-87505145D01*
X139115842Y-87488425D01*
X139138026Y-87472891D01*
X139301401Y-87358495D01*
X139468495Y-87191401D01*
X139604035Y-86997830D01*
X139703903Y-86783663D01*
X139765063Y-86555408D01*
X139785659Y-86320000D01*
X139765063Y-86084592D01*
X139703903Y-85856337D01*
X139604035Y-85642171D01*
X139598425Y-85634158D01*
X139468494Y-85448597D01*
X139301402Y-85281506D01*
X139301396Y-85281501D01*
X139115842Y-85151575D01*
X139072217Y-85096998D01*
X139065023Y-85027500D01*
X139096546Y-84965145D01*
X139115842Y-84948425D01*
X139138026Y-84932891D01*
X139301401Y-84818495D01*
X139468495Y-84651401D01*
X139604035Y-84457830D01*
X139703903Y-84243663D01*
X139765063Y-84015408D01*
X139785659Y-83780000D01*
X139765063Y-83544592D01*
X139703903Y-83316337D01*
X139604035Y-83102171D01*
X139598425Y-83094158D01*
X139468494Y-82908597D01*
X139301402Y-82741506D01*
X139301396Y-82741501D01*
X139115842Y-82611575D01*
X139072217Y-82556998D01*
X139065023Y-82487500D01*
X139096546Y-82425145D01*
X139115842Y-82408425D01*
X139138026Y-82392891D01*
X139301401Y-82278495D01*
X139468495Y-82111401D01*
X139604035Y-81917830D01*
X139703903Y-81703663D01*
X139765063Y-81475408D01*
X139785659Y-81240000D01*
X139765063Y-81004592D01*
X139703903Y-80776337D01*
X139604035Y-80562171D01*
X139468495Y-80368599D01*
X139468494Y-80368597D01*
X139301402Y-80201506D01*
X139301395Y-80201501D01*
X139107834Y-80065967D01*
X139107830Y-80065965D01*
X139036727Y-80032809D01*
X138893663Y-79966097D01*
X138893659Y-79966096D01*
X138893655Y-79966094D01*
X138665413Y-79904938D01*
X138665403Y-79904936D01*
X138430001Y-79884341D01*
X138429999Y-79884341D01*
X138194596Y-79904936D01*
X138194586Y-79904938D01*
X137966344Y-79966094D01*
X137966335Y-79966098D01*
X137752171Y-80065964D01*
X137752169Y-80065965D01*
X137558600Y-80201503D01*
X137436673Y-80323430D01*
X137375350Y-80356914D01*
X137305658Y-80351930D01*
X137249725Y-80310058D01*
X137232810Y-80279081D01*
X137183797Y-80147671D01*
X137183793Y-80147664D01*
X137097547Y-80032455D01*
X137097544Y-80032452D01*
X136982335Y-79946206D01*
X136982328Y-79946202D01*
X136879936Y-79908013D01*
X136824002Y-79866142D01*
X136799585Y-79800678D01*
X136814436Y-79732405D01*
X136863841Y-79682999D01*
X136891169Y-79672058D01*
X136995087Y-79644214D01*
X137357194Y-79505214D01*
X137702789Y-79329125D01*
X138028084Y-79117876D01*
X138329516Y-78873781D01*
X138603781Y-78599516D01*
X138847876Y-78298084D01*
X139059125Y-77972789D01*
X139235214Y-77627194D01*
X139263431Y-77553685D01*
X141045740Y-77553685D01*
X141055755Y-77738406D01*
X141055755Y-77738411D01*
X141105244Y-77916656D01*
X141105247Y-77916662D01*
X141191898Y-78080102D01*
X141254540Y-78153850D01*
X141311663Y-78221100D01*
X141458936Y-78333054D01*
X141626833Y-78410732D01*
X141626834Y-78410732D01*
X141626836Y-78410733D01*
X141681648Y-78422797D01*
X141807503Y-78450500D01*
X141807506Y-78450500D01*
X141946107Y-78450500D01*
X141946113Y-78450500D01*
X142083910Y-78435514D01*
X142259221Y-78376444D01*
X142417736Y-78281070D01*
X142552041Y-78153849D01*
X142655858Y-78000730D01*
X142724331Y-77828875D01*
X142754260Y-77646317D01*
X142749238Y-77553685D01*
X154345740Y-77553685D01*
X154355755Y-77738406D01*
X154355755Y-77738411D01*
X154405244Y-77916656D01*
X154405247Y-77916662D01*
X154491898Y-78080102D01*
X154554540Y-78153850D01*
X154611663Y-78221100D01*
X154758936Y-78333054D01*
X154926833Y-78410732D01*
X154926834Y-78410732D01*
X154926836Y-78410733D01*
X154981648Y-78422797D01*
X155107503Y-78450500D01*
X155107506Y-78450500D01*
X155246107Y-78450500D01*
X155246113Y-78450500D01*
X155383910Y-78435514D01*
X155559221Y-78376444D01*
X155717736Y-78281070D01*
X155852041Y-78153849D01*
X155955858Y-78000730D01*
X156024331Y-77828875D01*
X156054260Y-77646317D01*
X156044245Y-77461593D01*
X155994754Y-77283341D01*
X155908100Y-77119896D01*
X155845460Y-77046151D01*
X155788337Y-76978900D01*
X155729664Y-76934298D01*
X155641064Y-76866946D01*
X155473167Y-76789268D01*
X155473163Y-76789266D01*
X155292497Y-76749500D01*
X155153887Y-76749500D01*
X155153883Y-76749500D01*
X155016088Y-76764486D01*
X154840776Y-76823557D01*
X154840774Y-76823558D01*
X154682262Y-76918931D01*
X154682261Y-76918932D01*
X154547959Y-77046149D01*
X154444138Y-77199276D01*
X154375669Y-77371122D01*
X154345740Y-77553685D01*
X142749238Y-77553685D01*
X142744245Y-77461593D01*
X142694754Y-77283341D01*
X142608100Y-77119896D01*
X142545460Y-77046151D01*
X142488337Y-76978900D01*
X142429664Y-76934298D01*
X142341064Y-76866946D01*
X142173167Y-76789268D01*
X142173163Y-76789266D01*
X141992497Y-76749500D01*
X141853887Y-76749500D01*
X141853883Y-76749500D01*
X141716088Y-76764486D01*
X141540776Y-76823557D01*
X141540774Y-76823558D01*
X141382262Y-76918931D01*
X141382261Y-76918932D01*
X141247959Y-77046149D01*
X141144138Y-77199276D01*
X141075669Y-77371122D01*
X141045740Y-77553685D01*
X139263431Y-77553685D01*
X139374214Y-77265087D01*
X139474602Y-76890433D01*
X139535278Y-76507338D01*
X139555578Y-76120000D01*
X139544048Y-75900000D01*
X142244571Y-75900000D01*
X142264244Y-76112310D01*
X142322596Y-76317392D01*
X142322596Y-76317394D01*
X142417632Y-76508253D01*
X142489450Y-76603354D01*
X142546128Y-76678407D01*
X142703698Y-76822052D01*
X142884981Y-76934298D01*
X143083802Y-77011321D01*
X143293390Y-77050500D01*
X143293392Y-77050500D01*
X143506608Y-77050500D01*
X143506610Y-77050500D01*
X143716198Y-77011321D01*
X143915019Y-76934298D01*
X144096302Y-76822052D01*
X144253872Y-76678407D01*
X144301046Y-76615938D01*
X144357155Y-76574303D01*
X144426867Y-76569612D01*
X144488049Y-76603354D01*
X144498953Y-76615938D01*
X144546128Y-76678407D01*
X144703698Y-76822052D01*
X144884981Y-76934298D01*
X145083802Y-77011321D01*
X145293390Y-77050500D01*
X145293392Y-77050500D01*
X145506608Y-77050500D01*
X145506610Y-77050500D01*
X145716198Y-77011321D01*
X145915019Y-76934298D01*
X146096302Y-76822052D01*
X146253872Y-76678407D01*
X146301046Y-76615938D01*
X146357155Y-76574303D01*
X146426867Y-76569612D01*
X146488049Y-76603354D01*
X146498953Y-76615938D01*
X146546128Y-76678407D01*
X146703698Y-76822052D01*
X146884981Y-76934298D01*
X147083802Y-77011321D01*
X147293390Y-77050500D01*
X147293392Y-77050500D01*
X147506608Y-77050500D01*
X147506610Y-77050500D01*
X147716198Y-77011321D01*
X147915019Y-76934298D01*
X148096302Y-76822052D01*
X148253872Y-76678407D01*
X148301046Y-76615938D01*
X148357155Y-76574303D01*
X148426867Y-76569612D01*
X148488049Y-76603354D01*
X148498953Y-76615938D01*
X148546128Y-76678407D01*
X148703698Y-76822052D01*
X148884981Y-76934298D01*
X149083802Y-77011321D01*
X149293390Y-77050500D01*
X149293392Y-77050500D01*
X149506608Y-77050500D01*
X149506610Y-77050500D01*
X149716198Y-77011321D01*
X149915019Y-76934298D01*
X150096302Y-76822052D01*
X150253872Y-76678407D01*
X150382366Y-76508255D01*
X150477405Y-76317389D01*
X150535756Y-76112310D01*
X150555429Y-75900000D01*
X155544571Y-75900000D01*
X155564244Y-76112310D01*
X155622596Y-76317392D01*
X155622596Y-76317394D01*
X155717632Y-76508253D01*
X155789450Y-76603354D01*
X155846128Y-76678407D01*
X156003698Y-76822052D01*
X156184981Y-76934298D01*
X156383802Y-77011321D01*
X156593390Y-77050500D01*
X156593392Y-77050500D01*
X156806608Y-77050500D01*
X156806610Y-77050500D01*
X157016198Y-77011321D01*
X157215019Y-76934298D01*
X157396302Y-76822052D01*
X157553872Y-76678407D01*
X157601046Y-76615938D01*
X157657155Y-76574303D01*
X157726867Y-76569612D01*
X157788049Y-76603354D01*
X157798953Y-76615938D01*
X157846128Y-76678407D01*
X158003698Y-76822052D01*
X158184981Y-76934298D01*
X158383802Y-77011321D01*
X158593390Y-77050500D01*
X158593392Y-77050500D01*
X158806608Y-77050500D01*
X158806610Y-77050500D01*
X159016198Y-77011321D01*
X159215019Y-76934298D01*
X159396302Y-76822052D01*
X159553872Y-76678407D01*
X159601046Y-76615938D01*
X159657155Y-76574303D01*
X159726867Y-76569612D01*
X159788049Y-76603354D01*
X159798953Y-76615938D01*
X159846128Y-76678407D01*
X160003698Y-76822052D01*
X160184981Y-76934298D01*
X160383802Y-77011321D01*
X160593390Y-77050500D01*
X160593392Y-77050500D01*
X160806608Y-77050500D01*
X160806610Y-77050500D01*
X161016198Y-77011321D01*
X161215019Y-76934298D01*
X161396302Y-76822052D01*
X161553872Y-76678407D01*
X161601046Y-76615938D01*
X161657155Y-76574303D01*
X161726867Y-76569612D01*
X161788049Y-76603354D01*
X161798953Y-76615938D01*
X161846128Y-76678407D01*
X162003698Y-76822052D01*
X162184981Y-76934298D01*
X162383802Y-77011321D01*
X162593390Y-77050500D01*
X162593392Y-77050500D01*
X162806608Y-77050500D01*
X162806610Y-77050500D01*
X163016198Y-77011321D01*
X163215019Y-76934298D01*
X163396302Y-76822052D01*
X163553872Y-76678407D01*
X163682366Y-76508255D01*
X163777405Y-76317389D01*
X163835756Y-76112310D01*
X163855429Y-75900000D01*
X163835756Y-75687690D01*
X163777405Y-75482611D01*
X163777403Y-75482606D01*
X163777403Y-75482605D01*
X163682367Y-75291746D01*
X163553872Y-75121593D01*
X163396302Y-74977948D01*
X163215019Y-74865702D01*
X163215017Y-74865701D01*
X163115608Y-74827190D01*
X163016198Y-74788679D01*
X162806610Y-74749500D01*
X162593390Y-74749500D01*
X162383802Y-74788679D01*
X162383799Y-74788679D01*
X162383799Y-74788680D01*
X162184982Y-74865701D01*
X162184980Y-74865702D01*
X162003699Y-74977947D01*
X161846126Y-75121594D01*
X161798953Y-75184061D01*
X161742844Y-75225696D01*
X161673132Y-75230387D01*
X161611950Y-75196644D01*
X161601047Y-75184061D01*
X161553873Y-75121594D01*
X161553872Y-75121593D01*
X161396302Y-74977948D01*
X161215019Y-74865702D01*
X161215017Y-74865701D01*
X161115608Y-74827190D01*
X161016198Y-74788679D01*
X160806610Y-74749500D01*
X160593390Y-74749500D01*
X160383802Y-74788679D01*
X160383799Y-74788679D01*
X160383799Y-74788680D01*
X160184982Y-74865701D01*
X160184980Y-74865702D01*
X160003699Y-74977947D01*
X159846126Y-75121594D01*
X159798953Y-75184061D01*
X159742844Y-75225696D01*
X159673132Y-75230387D01*
X159611950Y-75196644D01*
X159601047Y-75184061D01*
X159553873Y-75121594D01*
X159553872Y-75121593D01*
X159396302Y-74977948D01*
X159215019Y-74865702D01*
X159215017Y-74865701D01*
X159115608Y-74827190D01*
X159016198Y-74788679D01*
X158806610Y-74749500D01*
X158593390Y-74749500D01*
X158383802Y-74788679D01*
X158383799Y-74788679D01*
X158383799Y-74788680D01*
X158184982Y-74865701D01*
X158184980Y-74865702D01*
X158003699Y-74977947D01*
X157846126Y-75121594D01*
X157798953Y-75184061D01*
X157742844Y-75225696D01*
X157673132Y-75230387D01*
X157611950Y-75196644D01*
X157601047Y-75184061D01*
X157553873Y-75121594D01*
X157553872Y-75121593D01*
X157396302Y-74977948D01*
X157215019Y-74865702D01*
X157215017Y-74865701D01*
X157115608Y-74827190D01*
X157016198Y-74788679D01*
X156806610Y-74749500D01*
X156593390Y-74749500D01*
X156383802Y-74788679D01*
X156383799Y-74788679D01*
X156383799Y-74788680D01*
X156184982Y-74865701D01*
X156184980Y-74865702D01*
X156003699Y-74977947D01*
X155846127Y-75121593D01*
X155717632Y-75291746D01*
X155622596Y-75482605D01*
X155622596Y-75482607D01*
X155564244Y-75687689D01*
X155544571Y-75899999D01*
X155544571Y-75900000D01*
X150555429Y-75900000D01*
X150535756Y-75687690D01*
X150477405Y-75482611D01*
X150477403Y-75482606D01*
X150477403Y-75482605D01*
X150382367Y-75291746D01*
X150253872Y-75121593D01*
X150096302Y-74977948D01*
X149915019Y-74865702D01*
X149915017Y-74865701D01*
X149815608Y-74827190D01*
X149716198Y-74788679D01*
X149506610Y-74749500D01*
X149293390Y-74749500D01*
X149083802Y-74788679D01*
X149083799Y-74788679D01*
X149083799Y-74788680D01*
X148884982Y-74865701D01*
X148884980Y-74865702D01*
X148703699Y-74977947D01*
X148546126Y-75121594D01*
X148498953Y-75184061D01*
X148442844Y-75225696D01*
X148373132Y-75230387D01*
X148311950Y-75196644D01*
X148301047Y-75184061D01*
X148253873Y-75121594D01*
X148253872Y-75121593D01*
X148096302Y-74977948D01*
X147915019Y-74865702D01*
X147915017Y-74865701D01*
X147815608Y-74827190D01*
X147716198Y-74788679D01*
X147506610Y-74749500D01*
X147293390Y-74749500D01*
X147083802Y-74788679D01*
X147083799Y-74788679D01*
X147083799Y-74788680D01*
X146884982Y-74865701D01*
X146884980Y-74865702D01*
X146703699Y-74977947D01*
X146546126Y-75121594D01*
X146498953Y-75184061D01*
X146442844Y-75225696D01*
X146373132Y-75230387D01*
X146311950Y-75196644D01*
X146301047Y-75184061D01*
X146253873Y-75121594D01*
X146253872Y-75121593D01*
X146096302Y-74977948D01*
X145915019Y-74865702D01*
X145915017Y-74865701D01*
X145815608Y-74827190D01*
X145716198Y-74788679D01*
X145506610Y-74749500D01*
X145293390Y-74749500D01*
X145083802Y-74788679D01*
X145083799Y-74788679D01*
X145083799Y-74788680D01*
X144884982Y-74865701D01*
X144884980Y-74865702D01*
X144703699Y-74977947D01*
X144546126Y-75121594D01*
X144498953Y-75184061D01*
X144442844Y-75225696D01*
X144373132Y-75230387D01*
X144311950Y-75196644D01*
X144301047Y-75184061D01*
X144253873Y-75121594D01*
X144253872Y-75121593D01*
X144096302Y-74977948D01*
X143915019Y-74865702D01*
X143915017Y-74865701D01*
X143815608Y-74827190D01*
X143716198Y-74788679D01*
X143506610Y-74749500D01*
X143293390Y-74749500D01*
X143083802Y-74788679D01*
X143083799Y-74788679D01*
X143083799Y-74788680D01*
X142884982Y-74865701D01*
X142884980Y-74865702D01*
X142703699Y-74977947D01*
X142546127Y-75121593D01*
X142417632Y-75291746D01*
X142322596Y-75482605D01*
X142322596Y-75482607D01*
X142264244Y-75687689D01*
X142244571Y-75899999D01*
X142244571Y-75900000D01*
X139544048Y-75900000D01*
X139535278Y-75732662D01*
X139474602Y-75349567D01*
X139374214Y-74974913D01*
X139235214Y-74612806D01*
X139059125Y-74267211D01*
X138847876Y-73941916D01*
X138603781Y-73640484D01*
X138329516Y-73366219D01*
X138028084Y-73122124D01*
X138028082Y-73122122D01*
X137702791Y-72910875D01*
X137702788Y-72910874D01*
X137691230Y-72904985D01*
X137640434Y-72857011D01*
X137623638Y-72789191D01*
X137646175Y-72723056D01*
X137700889Y-72679603D01*
X137747524Y-72670500D01*
X167052476Y-72670500D01*
X167119515Y-72690185D01*
G37*
%TD.AperFunction*%
%TA.AperFunction,Conductor*%
G36*
X132605703Y-77923811D02*
G01*
X132634985Y-77961230D01*
X132640874Y-77972788D01*
X132640875Y-77972791D01*
X132852122Y-78298082D01*
X132943345Y-78410733D01*
X133096219Y-78599516D01*
X133370484Y-78873781D01*
X133370488Y-78873784D01*
X133671917Y-79117877D01*
X133997206Y-79329122D01*
X133997211Y-79329125D01*
X134342806Y-79505214D01*
X134704913Y-79644214D01*
X134855378Y-79684531D01*
X134915038Y-79720895D01*
X134945567Y-79783742D01*
X134937272Y-79853117D01*
X134892787Y-79906995D01*
X134866618Y-79920487D01*
X134797669Y-79946203D01*
X134797664Y-79946206D01*
X134682455Y-80032452D01*
X134682452Y-80032455D01*
X134596206Y-80147664D01*
X134596202Y-80147671D01*
X134545908Y-80282517D01*
X134539501Y-80342116D01*
X134539500Y-80342135D01*
X134539500Y-82137870D01*
X134539501Y-82137876D01*
X134545908Y-82197483D01*
X134596202Y-82332328D01*
X134596206Y-82332335D01*
X134682452Y-82447544D01*
X134682455Y-82447547D01*
X134797664Y-82533793D01*
X134797671Y-82533797D01*
X134929081Y-82582810D01*
X134985015Y-82624681D01*
X135009432Y-82690145D01*
X134994580Y-82758418D01*
X134973430Y-82786673D01*
X134851503Y-82908600D01*
X134715965Y-83102169D01*
X134715964Y-83102171D01*
X134616098Y-83316335D01*
X134616094Y-83316344D01*
X134554938Y-83544586D01*
X134554936Y-83544596D01*
X134534341Y-83779999D01*
X134534341Y-83780000D01*
X134554936Y-84015403D01*
X134554938Y-84015413D01*
X134616094Y-84243655D01*
X134616096Y-84243659D01*
X134616097Y-84243663D01*
X134620000Y-84252032D01*
X134715965Y-84457830D01*
X134715967Y-84457834D01*
X134824281Y-84612521D01*
X134851501Y-84651396D01*
X134851506Y-84651402D01*
X135018597Y-84818493D01*
X135018603Y-84818498D01*
X135204158Y-84948425D01*
X135247783Y-85003002D01*
X135254977Y-85072500D01*
X135223454Y-85134855D01*
X135204158Y-85151575D01*
X135018597Y-85281505D01*
X134851505Y-85448597D01*
X134715965Y-85642169D01*
X134715964Y-85642171D01*
X134616098Y-85856335D01*
X134616094Y-85856344D01*
X134554938Y-86084586D01*
X134554936Y-86084596D01*
X134534341Y-86319999D01*
X134534341Y-86320000D01*
X134554936Y-86555403D01*
X134554938Y-86555413D01*
X134616094Y-86783655D01*
X134616096Y-86783659D01*
X134616097Y-86783663D01*
X134620000Y-86792032D01*
X134715965Y-86997830D01*
X134715967Y-86997834D01*
X134824281Y-87152521D01*
X134851501Y-87191396D01*
X134851506Y-87191402D01*
X135018597Y-87358493D01*
X135018603Y-87358498D01*
X135204158Y-87488425D01*
X135247783Y-87543002D01*
X135254977Y-87612500D01*
X135223454Y-87674855D01*
X135204158Y-87691575D01*
X135018597Y-87821505D01*
X134851505Y-87988597D01*
X134715965Y-88182169D01*
X134715964Y-88182171D01*
X134616098Y-88396335D01*
X134616094Y-88396344D01*
X134554938Y-88624586D01*
X134554936Y-88624596D01*
X134534341Y-88859999D01*
X134534341Y-88860000D01*
X134554936Y-89095403D01*
X134554938Y-89095413D01*
X134616094Y-89323655D01*
X134616096Y-89323659D01*
X134616097Y-89323663D01*
X134696004Y-89495023D01*
X134715965Y-89537830D01*
X134715967Y-89537834D01*
X134746547Y-89581506D01*
X134851501Y-89731396D01*
X134851506Y-89731402D01*
X135018597Y-89898493D01*
X135018603Y-89898498D01*
X135204158Y-90028425D01*
X135247783Y-90083002D01*
X135254977Y-90152500D01*
X135223454Y-90214855D01*
X135204158Y-90231575D01*
X135018597Y-90361505D01*
X134851505Y-90528597D01*
X134715965Y-90722169D01*
X134715964Y-90722171D01*
X134616098Y-90936335D01*
X134616094Y-90936344D01*
X134554938Y-91164586D01*
X134554936Y-91164596D01*
X134534341Y-91399999D01*
X134534341Y-91400000D01*
X134554936Y-91635403D01*
X134554938Y-91635413D01*
X134616094Y-91863655D01*
X134616096Y-91863659D01*
X134616097Y-91863663D01*
X134665916Y-91970499D01*
X134715965Y-92077830D01*
X134715967Y-92077834D01*
X134778174Y-92166674D01*
X134851501Y-92271396D01*
X134851506Y-92271402D01*
X135018597Y-92438493D01*
X135018603Y-92438498D01*
X135204158Y-92568425D01*
X135247783Y-92623002D01*
X135254977Y-92692500D01*
X135223454Y-92754855D01*
X135204158Y-92771575D01*
X135018597Y-92901505D01*
X134851505Y-93068597D01*
X134715965Y-93262169D01*
X134715964Y-93262171D01*
X134616098Y-93476335D01*
X134616094Y-93476344D01*
X134554938Y-93704586D01*
X134554936Y-93704596D01*
X134534341Y-93939999D01*
X134534341Y-93940000D01*
X134554936Y-94175403D01*
X134554938Y-94175413D01*
X134616094Y-94403655D01*
X134616096Y-94403659D01*
X134616097Y-94403663D01*
X134650294Y-94476998D01*
X134715965Y-94617830D01*
X134715967Y-94617834D01*
X134746547Y-94661506D01*
X134851501Y-94811396D01*
X134851506Y-94811402D01*
X135018597Y-94978493D01*
X135018603Y-94978498D01*
X135204158Y-95108425D01*
X135247783Y-95163002D01*
X135254977Y-95232500D01*
X135223454Y-95294855D01*
X135204158Y-95311575D01*
X135018597Y-95441505D01*
X134851505Y-95608597D01*
X134715965Y-95802169D01*
X134715964Y-95802171D01*
X134616098Y-96016335D01*
X134616094Y-96016344D01*
X134554938Y-96244586D01*
X134554936Y-96244596D01*
X134534341Y-96479999D01*
X134534341Y-96480000D01*
X134554936Y-96715403D01*
X134554938Y-96715413D01*
X134616094Y-96943655D01*
X134616096Y-96943659D01*
X134616097Y-96943663D01*
X134665915Y-97050498D01*
X134715965Y-97157830D01*
X134715967Y-97157834D01*
X134824281Y-97312521D01*
X134851501Y-97351396D01*
X134851506Y-97351402D01*
X135018597Y-97518493D01*
X135018603Y-97518498D01*
X135204158Y-97648425D01*
X135247783Y-97703002D01*
X135254977Y-97772500D01*
X135223454Y-97834855D01*
X135204158Y-97851575D01*
X135018597Y-97981505D01*
X134851505Y-98148597D01*
X134715965Y-98342169D01*
X134715964Y-98342171D01*
X134616098Y-98556335D01*
X134616094Y-98556344D01*
X134554938Y-98784586D01*
X134554936Y-98784596D01*
X134534341Y-99019999D01*
X134534341Y-99020000D01*
X134554936Y-99255403D01*
X134554938Y-99255413D01*
X134616094Y-99483655D01*
X134616096Y-99483659D01*
X134616097Y-99483663D01*
X134620000Y-99492032D01*
X134715965Y-99697830D01*
X134715967Y-99697834D01*
X134824281Y-99852521D01*
X134851501Y-99891396D01*
X134851506Y-99891402D01*
X135018597Y-100058493D01*
X135018603Y-100058498D01*
X135204158Y-100188425D01*
X135247783Y-100243002D01*
X135254977Y-100312500D01*
X135223454Y-100374855D01*
X135204158Y-100391575D01*
X135018597Y-100521505D01*
X134851505Y-100688597D01*
X134715965Y-100882169D01*
X134715964Y-100882171D01*
X134616098Y-101096335D01*
X134616094Y-101096344D01*
X134554938Y-101324586D01*
X134554936Y-101324596D01*
X134534341Y-101559999D01*
X134534341Y-101560000D01*
X134554936Y-101795403D01*
X134554938Y-101795413D01*
X134616094Y-102023655D01*
X134616096Y-102023659D01*
X134616097Y-102023663D01*
X134620000Y-102032032D01*
X134715965Y-102237830D01*
X134715967Y-102237834D01*
X134824281Y-102392521D01*
X134851501Y-102431396D01*
X134851506Y-102431402D01*
X135018597Y-102598493D01*
X135018603Y-102598498D01*
X135204594Y-102728730D01*
X135248219Y-102783307D01*
X135255413Y-102852805D01*
X135223890Y-102915160D01*
X135204595Y-102931880D01*
X135018922Y-103061890D01*
X135018920Y-103061891D01*
X134851891Y-103228920D01*
X134851886Y-103228926D01*
X134716400Y-103422420D01*
X134716399Y-103422422D01*
X134616570Y-103636507D01*
X134616567Y-103636513D01*
X134559364Y-103849999D01*
X134559364Y-103850000D01*
X135456314Y-103850000D01*
X135430507Y-103890156D01*
X135390000Y-104028111D01*
X135390000Y-104171889D01*
X135430507Y-104309844D01*
X135456314Y-104350000D01*
X134559364Y-104350000D01*
X134616567Y-104563486D01*
X134616570Y-104563492D01*
X134716399Y-104777578D01*
X134851894Y-104971082D01*
X135018917Y-105138105D01*
X135212422Y-105273600D01*
X135212424Y-105273601D01*
X135326282Y-105326694D01*
X135378722Y-105372866D01*
X135397874Y-105440059D01*
X135377659Y-105506941D01*
X135324493Y-105552275D01*
X135293276Y-105561549D01*
X135079572Y-105595397D01*
X135079570Y-105595397D01*
X134704905Y-105695788D01*
X134342802Y-105834787D01*
X133997206Y-106010877D01*
X133671917Y-106222122D01*
X133370488Y-106466215D01*
X133370480Y-106466222D01*
X133096222Y-106740480D01*
X133096215Y-106740488D01*
X132852122Y-107041917D01*
X132640876Y-107367207D01*
X132634984Y-107378772D01*
X132587008Y-107429567D01*
X132519187Y-107446361D01*
X132453053Y-107423822D01*
X132409602Y-107369106D01*
X132400500Y-107322475D01*
X132400500Y-78017524D01*
X132420185Y-77950485D01*
X132472989Y-77904730D01*
X132542147Y-77894786D01*
X132605703Y-77923811D01*
G37*
%TD.AperFunction*%
%TA.AperFunction,Conductor*%
G36*
X172346944Y-77916175D02*
G01*
X172390397Y-77970889D01*
X172399500Y-78017524D01*
X172399500Y-107322475D01*
X172379815Y-107389514D01*
X172327011Y-107435269D01*
X172257853Y-107445213D01*
X172194297Y-107416188D01*
X172165016Y-107378772D01*
X172159123Y-107367207D01*
X171947877Y-107041917D01*
X171703784Y-106740488D01*
X171703781Y-106740484D01*
X171429516Y-106466219D01*
X171128084Y-106222124D01*
X171128082Y-106222122D01*
X170802793Y-106010877D01*
X170457197Y-105834787D01*
X170095094Y-105695788D01*
X170095087Y-105695786D01*
X169720433Y-105595398D01*
X169720429Y-105595397D01*
X169720428Y-105595397D01*
X169507607Y-105561689D01*
X169444472Y-105531760D01*
X169407541Y-105472448D01*
X169408539Y-105402585D01*
X169447149Y-105344353D01*
X169474596Y-105326836D01*
X169587830Y-105274035D01*
X169781401Y-105138495D01*
X169948495Y-104971401D01*
X170084035Y-104777830D01*
X170183903Y-104563663D01*
X170245063Y-104335408D01*
X170265659Y-104100000D01*
X170245063Y-103864592D01*
X170183903Y-103636337D01*
X170084035Y-103422171D01*
X170078425Y-103414158D01*
X169948494Y-103228597D01*
X169781402Y-103061506D01*
X169781396Y-103061501D01*
X169595842Y-102931575D01*
X169552217Y-102876998D01*
X169545023Y-102807500D01*
X169576546Y-102745145D01*
X169595842Y-102728425D01*
X169618026Y-102712891D01*
X169781401Y-102598495D01*
X169948495Y-102431401D01*
X170084035Y-102237830D01*
X170183903Y-102023663D01*
X170245063Y-101795408D01*
X170265659Y-101560000D01*
X170245063Y-101324592D01*
X170183903Y-101096337D01*
X170084035Y-100882171D01*
X170078425Y-100874158D01*
X169948494Y-100688597D01*
X169781402Y-100521506D01*
X169781396Y-100521501D01*
X169595842Y-100391575D01*
X169552217Y-100336998D01*
X169545023Y-100267500D01*
X169576546Y-100205145D01*
X169595842Y-100188425D01*
X169618026Y-100172891D01*
X169781401Y-100058495D01*
X169948495Y-99891401D01*
X170084035Y-99697830D01*
X170183903Y-99483663D01*
X170245063Y-99255408D01*
X170265659Y-99020000D01*
X170245063Y-98784592D01*
X170183903Y-98556337D01*
X170084035Y-98342171D01*
X170078425Y-98334158D01*
X169948494Y-98148597D01*
X169781402Y-97981506D01*
X169781396Y-97981501D01*
X169595842Y-97851575D01*
X169552217Y-97796998D01*
X169545023Y-97727500D01*
X169576546Y-97665145D01*
X169595842Y-97648425D01*
X169618026Y-97632891D01*
X169781401Y-97518495D01*
X169948495Y-97351401D01*
X170084035Y-97157830D01*
X170183903Y-96943663D01*
X170245063Y-96715408D01*
X170265659Y-96480000D01*
X170245063Y-96244592D01*
X170183903Y-96016337D01*
X170084035Y-95802171D01*
X170078425Y-95794158D01*
X169948494Y-95608597D01*
X169781402Y-95441506D01*
X169781396Y-95441501D01*
X169595842Y-95311575D01*
X169552217Y-95256998D01*
X169545023Y-95187500D01*
X169576546Y-95125145D01*
X169595842Y-95108425D01*
X169719028Y-95022169D01*
X169781401Y-94978495D01*
X169948495Y-94811401D01*
X170084035Y-94617830D01*
X170183903Y-94403663D01*
X170245063Y-94175408D01*
X170265659Y-93940000D01*
X170245063Y-93704592D01*
X170183903Y-93476337D01*
X170084035Y-93262171D01*
X170078425Y-93254158D01*
X169948494Y-93068597D01*
X169781402Y-92901506D01*
X169781396Y-92901501D01*
X169595842Y-92771575D01*
X169552217Y-92716998D01*
X169545023Y-92647500D01*
X169576546Y-92585145D01*
X169595842Y-92568425D01*
X169719028Y-92482169D01*
X169781401Y-92438495D01*
X169948495Y-92271401D01*
X170084035Y-92077830D01*
X170183903Y-91863663D01*
X170245063Y-91635408D01*
X170265659Y-91400000D01*
X170245063Y-91164592D01*
X170183903Y-90936337D01*
X170084035Y-90722171D01*
X170078425Y-90714158D01*
X169948494Y-90528597D01*
X169781402Y-90361506D01*
X169781396Y-90361501D01*
X169595842Y-90231575D01*
X169552217Y-90176998D01*
X169545023Y-90107500D01*
X169576546Y-90045145D01*
X169595842Y-90028425D01*
X169719028Y-89942169D01*
X169781401Y-89898495D01*
X169948495Y-89731401D01*
X170084035Y-89537830D01*
X170183903Y-89323663D01*
X170245063Y-89095408D01*
X170265659Y-88860000D01*
X170245063Y-88624592D01*
X170183903Y-88396337D01*
X170084035Y-88182171D01*
X170078425Y-88174158D01*
X169948494Y-87988597D01*
X169781402Y-87821506D01*
X169781396Y-87821501D01*
X169595842Y-87691575D01*
X169552217Y-87636998D01*
X169545023Y-87567500D01*
X169576546Y-87505145D01*
X169595842Y-87488425D01*
X169618026Y-87472891D01*
X169781401Y-87358495D01*
X169948495Y-87191401D01*
X170084035Y-86997830D01*
X170183903Y-86783663D01*
X170245063Y-86555408D01*
X170265659Y-86320000D01*
X170245063Y-86084592D01*
X170183903Y-85856337D01*
X170084035Y-85642171D01*
X170078425Y-85634158D01*
X169948494Y-85448597D01*
X169781402Y-85281506D01*
X169781396Y-85281501D01*
X169595842Y-85151575D01*
X169552217Y-85096998D01*
X169545023Y-85027500D01*
X169576546Y-84965145D01*
X169595842Y-84948425D01*
X169618026Y-84932891D01*
X169781401Y-84818495D01*
X169948495Y-84651401D01*
X170084035Y-84457830D01*
X170183903Y-84243663D01*
X170245063Y-84015408D01*
X170265659Y-83780000D01*
X170245063Y-83544592D01*
X170183903Y-83316337D01*
X170084035Y-83102171D01*
X170078425Y-83094158D01*
X169948494Y-82908597D01*
X169781402Y-82741506D01*
X169781401Y-82741505D01*
X169595405Y-82611269D01*
X169551781Y-82556692D01*
X169544588Y-82487193D01*
X169576110Y-82424839D01*
X169595405Y-82408119D01*
X169781082Y-82278105D01*
X169948105Y-82111082D01*
X170083600Y-81917578D01*
X170183429Y-81703492D01*
X170183432Y-81703486D01*
X170240636Y-81490000D01*
X169343686Y-81490000D01*
X169369493Y-81449844D01*
X169410000Y-81311889D01*
X169410000Y-81168111D01*
X169369493Y-81030156D01*
X169343686Y-80990000D01*
X170240636Y-80990000D01*
X170240635Y-80989999D01*
X170183432Y-80776513D01*
X170183429Y-80776507D01*
X170083600Y-80562422D01*
X170083599Y-80562420D01*
X169948113Y-80368926D01*
X169948108Y-80368920D01*
X169781082Y-80201894D01*
X169587578Y-80066399D01*
X169473716Y-80013305D01*
X169421277Y-79967133D01*
X169402125Y-79899939D01*
X169422341Y-79833058D01*
X169475506Y-79787723D01*
X169506721Y-79778450D01*
X169720433Y-79744602D01*
X170095087Y-79644214D01*
X170457194Y-79505214D01*
X170802789Y-79329125D01*
X171128084Y-79117876D01*
X171429516Y-78873781D01*
X171703781Y-78599516D01*
X171947876Y-78298084D01*
X172140980Y-78000730D01*
X172159124Y-77972791D01*
X172159125Y-77972789D01*
X172165015Y-77961230D01*
X172212989Y-77910434D01*
X172280809Y-77893638D01*
X172346944Y-77916175D01*
G37*
%TD.AperFunction*%
%TA.AperFunction,Conductor*%
G36*
X137970507Y-103890156D02*
G01*
X137930000Y-104028111D01*
X137930000Y-104171889D01*
X137970507Y-104309844D01*
X137996314Y-104350000D01*
X136323686Y-104350000D01*
X136349493Y-104309844D01*
X136390000Y-104171889D01*
X136390000Y-104028111D01*
X136349493Y-103890156D01*
X136323686Y-103850000D01*
X137996314Y-103850000D01*
X137970507Y-103890156D01*
G37*
%TD.AperFunction*%
%TA.AperFunction,Conductor*%
G36*
X168450507Y-81030156D02*
G01*
X168410000Y-81168111D01*
X168410000Y-81311889D01*
X168450507Y-81449844D01*
X168476314Y-81490000D01*
X166803686Y-81490000D01*
X166829493Y-81449844D01*
X166870000Y-81311889D01*
X166870000Y-81168111D01*
X166829493Y-81030156D01*
X166803686Y-80990000D01*
X168476314Y-80990000D01*
X168450507Y-81030156D01*
G37*
%TD.AperFunction*%
%TD*%
M02*
