M48
; DRILL file {KiCad 7.0.9} date Fri Dec 29 11:45:24 2023
; FORMAT={-:-/ absolute / inch / decimal}
; #@! TF.CreationDate,2023-12-29T11:45:24+09:00
; #@! TF.GenerationSoftware,Kicad,Pcbnew,7.0.9
; #@! TF.FileFunction,Plated,1,6,PTH
FMAT,2
INCH
; #@! TA.AperFunction,Plated,PTH,ComponentDrill
T1C0.0197
; #@! TA.AperFunction,Plated,PTH,ComponentDrill
T2C0.0315
; #@! TA.AperFunction,Plated,PTH,ComponentDrill
T3C0.0394
; #@! TA.AperFunction,Plated,PTH,ComponentDrill
T4C0.0433
; #@! TA.AperFunction,Plated,PTH,ComponentDrill
T5C0.1260
%
G90
G05
T1
X5.2539Y-2.9969
X5.2539Y-4.3
X5.2816Y-2.93
X5.2816Y-3.0637
X5.2816Y-4.2332
X5.2816Y-4.3668
X5.3484Y-2.9024
X5.3484Y-3.0913
X5.3484Y-4.2055
X5.3484Y-4.3945
X5.4152Y-2.93
X5.4152Y-3.0637
X5.4152Y-4.2332
X5.4152Y-4.3668
X5.4429Y-2.9969
X5.4429Y-4.3
X6.5571Y-2.9969
X6.5571Y-4.3
X6.5848Y-2.93
X6.5848Y-3.0637
X6.5848Y-4.2332
X6.5848Y-4.3668
X6.6516Y-2.9024
X6.6516Y-3.0913
X6.6516Y-4.2055
X6.6516Y-4.3945
X6.7184Y-2.93
X6.7184Y-3.0637
X6.7184Y-4.2332
X6.7184Y-4.3668
X6.7461Y-2.9969
X6.7461Y-4.3
T2
X5.6457Y-2.9882
X5.7244Y-2.9882
X5.8031Y-2.9882
X5.8819Y-2.9882
X6.1693Y-2.9882
X6.248Y-2.9882
X6.3268Y-2.9882
X6.4055Y-2.9882
T3
X5.35Y-3.1984
X5.35Y-3.2984
X5.35Y-3.3984
X5.35Y-3.4984
X5.35Y-3.5984
X5.35Y-3.6984
X5.35Y-3.7984
X5.35Y-3.8984
X5.35Y-3.9984
X5.35Y-4.0984
X5.45Y-3.1984
X5.45Y-3.2984
X5.45Y-3.3984
X5.45Y-3.4984
X5.45Y-3.5984
X5.45Y-3.6984
X5.45Y-3.7984
X5.45Y-3.8984
X5.45Y-3.9984
X5.45Y-4.0984
X5.8535Y-3.5677
X5.8535Y-3.6677
X5.8535Y-3.7677
X6.1535Y-3.5677
X6.1535Y-3.6677
X6.1535Y-3.7677
X6.55Y-3.1984
X6.55Y-3.2984
X6.55Y-3.3984
X6.55Y-3.4984
X6.55Y-3.5984
X6.55Y-3.6984
X6.55Y-3.7984
X6.55Y-3.8984
X6.55Y-3.9984
X6.55Y-4.0984
X6.65Y-3.1984
X6.65Y-3.2984
X6.65Y-3.3984
X6.65Y-3.4984
X6.65Y-3.5984
X6.65Y-3.6984
X6.65Y-3.7984
X6.65Y-3.8984
X6.65Y-3.9984
X6.65Y-4.0984
T4
X5.6039Y-4.2559
X6.4039Y-4.2559
T5
X5.3484Y-2.9969
X5.3484Y-4.3
X6.6516Y-2.9969
X6.6516Y-4.3
T0
M30
